<?xml version="1.0" encoding="UTF-8" standalone="no"?>
<svg width="24" height="24" viewBox="0 0 24 24" xmlns="http://www.w3.org/2000/svg">
    <g>
        <path d="M21 18.763c-1.44-.484-4.8-1.816-4.8-1.816-1.08-.363-1.08-1.33-1.2-2.42v-.122c1.68-1.452 3-3.873 3-6.537C18 2.178 15.6 0 12 0 9.48 0 6 1.453 6 7.868c0 2.543 1.32 4.964 3 6.537v.12c0 1.09-.12 2.06-1.2 2.422 0 0-3.48 1.332-4.8 1.816-1.56.484-3 1.21-3 3.026V23h24v-1.21c0-1.453-.96-2.422-3-3.027zm-9.92-6.59h2.054v1.92H11.08v-1.92zm-2.44-5.55c0-.563.084-1.074.253-1.534.17-.462.414-.855.736-1.182.32-.328.71-.58 1.165-.76.455-.18.964-.268 1.526-.268.47 0 .908.07 1.312.207.404.138.757.337 1.06.598.3.26.538.586.712.974.174.388.26.827.26 1.318 0 .358-.038.667-.115.928-.077.26-.18.486-.307.675-.128.19-.274.36-.437.507-.164.148-.328.294-.49.437-.195.164-.374.322-.538.476-.164.153-.307.324-.43.513-.122.19-.217.412-.283.668-.067.256-.1.568-.1.936H11.31c0-.45.022-.83.068-1.143.046-.31.12-.585.222-.82.102-.235.228-.442.376-.62.148-.18.324-.357.53-.53.163-.143.32-.276.467-.4.148-.122.28-.257.4-.406.116-.148.208-.314.275-.498.066-.185.1-.405.1-.66 0-.307-.054-.57-.162-.79-.107-.22-.237-.397-.39-.53-.154-.132-.318-.23-.492-.29-.173-.062-.327-.093-.46-.093-.634 0-1.1.207-1.403.62-.3.415-.452.97-.452 1.665H8.64z" id="anon-user" fill="#FFF"/>
    </g>
</svg>
