<?xml version="1.0" encoding="UTF-8" standalone="no"?>
<svg width="20px" height="14px" viewBox="0 0 20 14" version="1.1" xmlns="http://www.w3.org/2000/svg" xmlns:xlink="http://www.w3.org/1999/xlink" xmlns:sketch="http://www.bohemiancoding.com/sketch/ns">
    <!-- Generator: Sketch 3.3.3 (12072) - http://www.bohemiancoding.com/sketch -->
    <title>topic-expand</title>
    <desc>Created with Sketch.</desc>
    <defs></defs>
    <g id="Page-1" stroke="none" stroke-width="1" fill="none" fill-rule="evenodd" sketch:type="MSPage">
        <g id="topic-expand" sketch:type="MSLayerGroup" fill="#AAAAAA">
            <path d="M6.77248677,13.4920045 C6.77248677,12.8952577 6.28819411,12.4126984 5.69394914,12.4126984 L19.6393842,12.4126984 C19.0444667,12.4126984 18.5608466,12.8966853 18.5608466,13.4920045 L18.5608466,0.359847325 C18.5608466,0.956594147 19.0451392,1.43915344 19.6393842,1.43915344 L5.69394914,1.43915344 C6.28886663,1.43915344 6.77248677,0.955166578 6.77248677,0.359847325 L6.77248677,13.4920045 Z M0.360615802,0 L19.6393842,0 C19.8385468,0 20,0.160353096 20,0.359847325 L20,13.4920045 C20,13.6907427 19.8400541,13.8518519 19.6393842,13.8518519 L0.360615802,13.8518519 C0.161453194,13.8518519 0,13.6914988 0,13.4920045 L0,0.359847325 C0,0.161109135 0.159945931,0 0.360615802,0 Z" id="Shape" sketch:type="MSShapeGroup"></path>
            <path d="M13.6719577,4.01798942 L13.6719577,6.35767196 L8.26455026,6.33968254 L8.26455026,8.06455026 L13.6719577,8.06455026 L13.6719577,10.4042328 L17.2698413,7.34603175 L13.6719577,4.01798942 Z M11.3375661,7.16613757 L11.3375661,7.23809524 L11.2656085,7.23809524 L11.2656085,7.16613757 L11.3375661,7.16613757 L11.3375661,7.16613757 Z" id="Shape" sketch:type="MSShapeGroup"></path>
        </g>
    </g>
</svg>