<?xml version="1.0" encoding="utf-8"?>
<!-- Generator: Adobe Illustrator 17.0.2, SVG Export Plug-In . SVG Version: 6.00 Build 0)  -->
<!DOCTYPE svg PUBLIC "-//W3C//DTD SVG 1.1//EN" "http://www.w3.org/Graphics/SVG/1.1/DTD/svg11.dtd">
<svg version="1.1" id="Layer_1" xmlns="http://www.w3.org/2000/svg" xmlns:xlink="http://www.w3.org/1999/xlink" x="0px" y="0px"
	 width="14px" height="14px" viewBox="12 11.763 14 14" enable-background="new 12 11.763 14 14" xml:space="preserve">
<path fill="#AAAAAA" d="M24.911,16.091c-0.033-0.639-0.331-1.26-0.772-1.751c-0.452-0.504-1.071-0.89-1.738-1
	c-1.957,1.755-6.91,6.2-8.622,7.735c0.002,0.001,0.003,0.002,0.006,0.004c-0.001-0.001-0.003-0.002-0.004-0.003l-0.691,3.108
	l3.187-0.351c0,0,0.001,0.002,0.001,0.002c0.001,0,0.002-0.002,0.002-0.002l0.004-0.001c-0.002,0-0.002-0.001-0.002-0.001
	C18.005,22.288,22.953,17.848,24.911,16.091z M15.352,21.98c-0.246-0.246-0.453-0.397-0.739-0.593l7.744-7.002
	c0.261,0.08,0.624,0.292,0.734,0.595L15.352,21.98z"/>
</svg>
