<?xml version="1.0" encoding="utf-8"?><!DOCTYPE svg PUBLIC "-//W3C//DTD SVG 1.1//EN" "http://www.w3.org/Graphics/SVG/1.1/DTD/svg11.dtd"><svg version="1.1" id="Layer_1" xmlns="http://www.w3.org/2000/svg" xmlns:xlink="http://www.w3.org/1999/xlink" x="0px" y="0px"   width="20.583px" height="26.416px" viewBox="0 0 20.583 26.416" enable-background="new 0 0 20.583 26.416" xml:space="preserve"><g><path fill="#FF5D00" d="M0.955,7.849l2.237,17.145c0,0.691,0.58,1.254,1.291,1.254h5.811h5.809c0.711,0,1.291-0.561,1.291-1.254   L19.63,7.849H0.955z"/><path fill="#FF5D00" d="M18.242,1.994c1.022,0,1.854,0.398,1.854,0.893V4.81c0,0.496-0.83,0.383-1.854,0.383H2.338   c-1.023,0-1.853,0.113-1.853-0.383V2.885c0-0.494,0.828-0.893,1.853-0.893L6.01,1.681l1.323-1.512h5.758l1.375,1.512L18.242,1.994z   "/></g></svg>