<?xml version="1.0" encoding="utf-8"?>
<!-- Generator: Adobe Illustrator 16.0.4, SVG Export Plug-In . SVG Version: 6.00 Build 0)  -->
<!DOCTYPE svg PUBLIC "-//W3C//DTD SVG 1.1//EN" "http://www.w3.org/Graphics/SVG/1.1/DTD/svg11.dtd">
<svg version="1.1" id="Layer_1" xmlns="http://www.w3.org/2000/svg" xmlns:xlink="http://www.w3.org/1999/xlink" x="0px" y="0px"
	 width="20.583px" height="26.416px" viewBox="7.833 -4.25 20.583 26.416" enable-background="new 7.833 -4.25 20.583 26.416"
	 xml:space="preserve">
<g>
	<path fill="#BF4600" d="M8.789,3.599l2.237,17.145c0,0.69,0.58,1.254,1.291,1.254h5.81h5.81c0.711,0,1.291-0.562,1.291-1.254
		l2.237-17.145H8.789z"/>
	<path fill="#BF4600" d="M26.076-2.256c1.021,0,1.854,0.398,1.854,0.893V0.56c0,0.496-0.83,0.383-1.854,0.383H10.172
		c-1.022,0-1.853,0.113-1.853-0.383v-1.925c0-0.494,0.828-0.893,1.853-0.893l3.672-0.312l1.324-1.512h5.758l1.375,1.512
		L26.076-2.256z"/>
</g>
</svg>
