<?xml version="1.0" encoding="UTF-8" standalone="no"?><svg xmlns="http://www.w3.org/2000/svg" width="36" height="36" viewBox="0 0 36 36"><path d="M.136 9.923c.1-1.931 1.004-3.809 2.334-5.292 1.365-1.521 3.236-2.688 5.252-3.019 5.914 5.306 20.881 18.736 26.056 23.376l-.017.012.014-.008 2.088 9.395-9.631-1.059-.003.004-.007-.004-.011-.004.003-.004c-5.206-4.672-20.16-18.088-26.078-23.397zm28.891 17.798c.743-.744 1.369-1.203 2.233-1.793l-23.404-21.161c-.789.242-1.885.882-2.219 1.796l23.39 21.158z" fill="#999"/></svg>