<?xml version="1.0" encoding="utf-8"?><!DOCTYPE svg PUBLIC "-//W3C//DTD SVG 1.1//EN" "http://www.w3.org/Graphics/SVG/1.1/DTD/svg11.dtd"><svg version="1.1" id="Layer_1" xmlns="http://www.w3.org/2000/svg" xmlns:xlink="http://www.w3.org/1999/xlink" x="0px" y="0px"   width="36px" height="36px" viewBox="0 0 36 36" enable-background="new 0 0 36 36" xml:space="preserve"><path fill="#999999" d="M35.863,9.923c-0.1-1.931-1.004-3.809-2.334-5.292c-1.365-1.521-3.236-2.688-5.252-3.019  C22.363,6.918,7.396,20.348,2.221,24.988C2.228,24.992,2.231,24.996,2.238,25c-0.003-0.004-0.011-0.004-0.014-0.008l-2.088,9.395  l9.631-1.059c0,0,0.003,0,0.003,0.004c0.004-0.004,0.007-0.004,0.007-0.004l0.011-0.004C9.785,33.32,9.785,33.32,9.785,33.32  C14.991,28.648,29.945,15.232,35.863,9.923z M6.972,27.721c-0.743-0.744-1.369-1.203-2.233-1.793L28.143,4.767  c0.789,0.242,1.885,0.882,2.219,1.796L6.972,27.721z"/></svg>