<?xml version="1.0" encoding="UTF-8" standalone="no"?>
<svg
   xmlns:dc="http://purl.org/dc/elements/1.1/"
   xmlns:cc="http://creativecommons.org/ns#"
   xmlns:rdf="http://www.w3.org/1999/02/22-rdf-syntax-ns#"
   xmlns:svg="http://www.w3.org/2000/svg"
   xmlns="http://www.w3.org/2000/svg"
   xmlns:sodipodi="http://sodipodi.sourceforge.net/DTD/sodipodi-0.dtd"
   xmlns:inkscape="http://www.inkscape.org/namespaces/inkscape"
   version="1.1"
   id="Layer_1"
   x="0px"
   y="0px"
   width="36px"
   height="36px"
   viewBox="0 0 36 36"
   enable-background="new 0 0 36 36"
   xml:space="preserve"
   inkscape:version="0.48.4 r9939"
   sodipodi:docname="edit_normal_rtl.svg"><metadata
     id="metadata9"><rdf:RDF><cc:Work
         rdf:about=""><dc:format>image/svg+xml</dc:format><dc:type
           rdf:resource="http://purl.org/dc/dcmitype/StillImage" /></cc:Work></rdf:RDF></metadata><defs
     id="defs7" /><sodipodi:namedview
     pagecolor="#ffffff"
     bordercolor="#666666"
     borderopacity="1"
     objecttolerance="10"
     gridtolerance="10"
     guidetolerance="10"
     inkscape:pageopacity="0"
     inkscape:pageshadow="2"
     inkscape:window-width="640"
     inkscape:window-height="480"
     id="namedview5"
     showgrid="false"
     inkscape:zoom="6.5555556"
     inkscape:cx="18"
     inkscape:cy="18"
     inkscape:window-x="0"
     inkscape:window-y="27"
     inkscape:window-maximized="0"
     inkscape:current-layer="Layer_1" /><path
     d="M 0.136,9.923 C 0.236,7.992 1.14,6.114 2.47,4.631 3.835,3.11 5.706,1.943 7.722,1.612 c 5.914,5.306 20.881,18.736 26.056,23.376 -0.007,0.004 -0.01,0.008 -0.017,0.012 0.003,-0.004 0.011,-0.004 0.014,-0.008 l 2.088,9.395 -9.631,-1.059 c 0,0 -0.003,0 -0.003,0.004 -0.004,-0.004 -0.007,-0.004 -0.007,-0.004 L 26.211,33.324 C 26.214,33.32 26.214,33.32 26.214,33.32 21.008,28.648 6.054,15.232 0.136,9.923 z m 28.891,17.798 c 0.743,-0.744 1.369,-1.203 2.233,-1.793 L 7.856,4.767 C 7.067,5.009 5.971,5.649 5.637,6.563 l 23.39,21.158 z"
     id="path3"
     inkscape:connector-curvature="0"
     style="fill:#d1d2d3" /></svg>