<?xml version="1.0" encoding="utf-8"?><!DOCTYPE svg PUBLIC "-//W3C//DTD SVG 1.1//EN" "http://www.w3.org/Graphics/SVG/1.1/DTD/svg11.dtd"><svg version="1.1" id="Untitled-Page_x25_201" xmlns="http://www.w3.org/2000/svg" xmlns:xlink="http://www.w3.org/1999/xlink"   x="0px" y="0px" width="42px" height="26px" viewBox="-10.5 -6.5 42 26" enable-background="new -10.5 -6.5 42 26"   xml:space="preserve"><path fill="none" d="z"/><g><path fill="#999999" d="M28.672-4.5L29.5-3.672v20.344L28.672,17.5H-7.672L-8.5,16.672V-3.672L-7.672-4.5H28.672 M29.5-6.5h-38   l-2,2v22l2,2h38l2-2v-22L29.5-6.5L29.5-6.5z"/><polygon fill="#999999" points="-2.5,-0.5 -6.5,-0.5 -6.5,3.5 -2.5,3.5 -2.5,-0.5  "/><polygon fill="#999999" points="-2.5,5.5 -6.5,5.5 -6.5,9.5 -2.5,9.5 -2.5,5.5  "/><polygon fill="#999999" points="-2.5,11.5 -6.5,11.5 -6.5,15.5 -2.5,15.5 -2.5,11.5  "/><polygon fill="#999999" points="9.5,-0.5 5.5,-0.5 5.5,3.5 9.5,3.5 9.5,-0.5  "/><polygon fill="#999999" points="9.5,5.5 5.5,5.5 5.5,9.5 9.5,9.5 9.5,5.5  "/><polygon fill="#999999" points="21.5,-0.5 17.5,-0.5 17.5,3.5 21.5,3.5 21.5,-0.5  "/><polygon fill="#999999" points="21.5,5.5 17.5,5.5 17.5,9.5 21.5,9.5 21.5,5.5  "/><polygon fill="#999999" points="21.5,11.5 17.5,11.5 17.5,15.5 21.5,15.5 21.5,11.5  "/><polygon fill="#999999" points="3.5,-0.5 -0.5,-0.5 -0.5,3.5 3.5,3.5 3.5,-0.5  "/><polygon fill="#999999" points="3.5,5.5 -0.5,5.5 -0.5,9.5 3.5,9.5 3.5,5.5  "/><polygon fill="#999999" points="15.5,-0.5 11.5,-0.5 11.5,3.5 15.5,3.5 15.5,-0.5  "/><polygon fill="#999999" points="15.5,5.5 11.5,5.5 11.5,9.5 15.5,9.5 15.5,5.5  "/><polygon fill="#999999" points="15.5,11.5 -0.5,11.5 -0.5,15.5 15.5,15.5 15.5,11.5  "/><polygon fill="#999999" points="27.5,-0.5 23.5,-0.5 23.5,3.5 27.5,3.5 27.5,-0.5  "/><polygon fill="#999999" points="27.5,5.5 23.5,5.5 23.5,9.5 27.5,9.5 27.5,5.5  "/><polygon fill="#999999" points="27.5,11.5 23.5,11.5 23.5,15.5 27.5,15.5 27.5,11.5  "/></g><path fill="none" d="z"/></svg>