<?xml version="1.0" encoding="utf-8"?><svg xmlns="http://www.w3.org/2000/svg" width="42" height="26" viewBox="-10.5 -6.5 42 26" enable-background="new -10.5 -6.5 42 26"><path d="z" fill="none"/><g fill="#999"><path d="M28.672-4.5l.828.828v20.344l-.828.828h-36.344l-.828-.828v-20.344l.828-.828h36.344m.828-2h-38l-2 2v22l2 2h38l2-2v-22l-2-2zM-2.5-.5h-4v4h4v-4zM-2.5 5.5h-4v4h4v-4zM-2.5 11.5h-4v4h4v-4zM9.5-.5h-4v4h4v-4zM9.5 5.5h-4v4h4v-4zM21.5-.5h-4v4h4v-4zM21.5 5.5h-4v4h4v-4zM21.5 11.5h-4v4h4v-4zM3.5-.5h-4v4h4v-4zM3.5 5.5h-4v4h4v-4zM15.5-.5h-4v4h4v-4zM15.5 5.5h-4v4h4v-4zM15.5 11.5h-16v4h16v-4zM27.5-.5h-4v4h4v-4zM27.5 5.5h-4v4h4v-4zM27.5 11.5h-4v4h4v-4z"/></g><path d="z" fill="none"/></svg>