<?xml version="1.0" encoding="UTF-8" standalone="no"?>
<svg
   xmlns:dc="http://purl.org/dc/elements/1.1/"
   xmlns:cc="http://creativecommons.org/ns#"
   xmlns:rdf="http://www.w3.org/1999/02/22-rdf-syntax-ns#"
   xmlns:svg="http://www.w3.org/2000/svg"
   xmlns="http://www.w3.org/2000/svg"
   xmlns:sodipodi="http://sodipodi.sourceforge.net/DTD/sodipodi-0.dtd"
   xmlns:inkscape="http://www.inkscape.org/namespaces/inkscape"
   version="1.1"
   id="Layer_1"
   x="0px"
   y="0px"
   width="36px"
   height="36px"
   viewBox="0 0 36 36"
   enable-background="new 0 0 36 36"
   xml:space="preserve"
   inkscape:version="0.48.4 r9939"
   sodipodi:docname="permalink_normal_rtl.svg"><metadata
     id="metadata13"><rdf:RDF><cc:Work
         rdf:about=""><dc:format>image/svg+xml</dc:format><dc:type
           rdf:resource="http://purl.org/dc/dcmitype/StillImage" /></cc:Work></rdf:RDF></metadata><defs
     id="defs11" /><sodipodi:namedview
     pagecolor="#ffffff"
     bordercolor="#666666"
     borderopacity="1"
     objecttolerance="10"
     gridtolerance="10"
     guidetolerance="10"
     inkscape:pageopacity="0"
     inkscape:pageshadow="2"
     inkscape:window-width="640"
     inkscape:window-height="480"
     id="namedview9"
     showgrid="false"
     inkscape:zoom="6.5555556"
     inkscape:cx="18"
     inkscape:cy="18"
     inkscape:window-x="0"
     inkscape:window-y="27"
     inkscape:window-maximized="0"
     inkscape:current-layer="Layer_1" /><g
     id="g3"
     transform="matrix(-1,0,0,1,35.999,0)"><path
       d="m 17.842,4.667 -4.077,4.078 c -0.352,0.352 -0.672,0.724 -0.957,1.114 -0.062,0.086 -0.121,0.174 -0.177,0.259 1.969,-0.532 4.059,-0.5 6.014,0.096 l 0.333,-0.335 2.249,-2.246 c 1.972,-1.972 5.171,-1.972 7.143,0 1.971,1.972 1.971,5.168 0,7.142 l -2.565,2.563 -0.527,0.527 -0.511,0.512 -0.003,0.002 -0.853,0.855 c -0.893,0.89 -2.031,1.375 -3.197,1.461 v 0.004 -0.001 c -0.245,0.024 -0.453,0.024 -0.633,0.016 -0.394,-0.019 -0.624,-0.078 -0.624,-0.078 0,-10e-4 0,-10e-4 0,-10e-4 h -0.003 c -0.982,-0.174 -1.926,-0.64 -2.687,-1.4 -0.739,-0.742 -1.203,-1.651 -1.388,-2.607 -0.003,-0.027 -0.008,-0.052 -0.012,-0.082 -0.864,0.072 -1.709,0.433 -2.369,1.093 l -1.358,1.359 c 0.465,1.178 1.17,2.286 2.125,3.237 0.954,0.953 2.057,1.661 3.235,2.127 0.219,0.086 0.438,0.161 0.66,0.232 0.183,0.056 0.372,0.109 0.56,0.155 0.014,0.003 0.025,0.008 0.037,0.01 0.035,0.01 0.07,0.015 0.104,0.022 1.953,0.45 4.02,0.279 5.89,-0.516 0.229,-0.096 0.455,-0.203 0.678,-0.319 0.013,-0.006 0.024,-0.011 0.038,-0.02 0.035,-0.021 0.073,-0.037 0.109,-0.061 0.094,-0.05 0.189,-0.1 0.281,-0.156 0,0 0.002,0 0.004,-0.004 0.677,-0.397 1.314,-0.89 1.896,-1.472 l 4.076,-4.076 c 3.726,-3.725 3.726,-9.766 0,-13.492 C 27.606,0.943 21.569,0.941 17.842,4.667 z"
       id="path5"
       inkscape:connector-curvature="0"
       style="fill:#d1d2d3" /><path
       d="m 18.157,31.333 4.078,-4.078 c 0.353,-0.35 0.672,-0.724 0.957,-1.113 0.062,-0.084 0.118,-0.173 0.178,-0.26 -1.968,0.533 -4.059,0.502 -6.015,-0.095 l -0.334,0.332 -2.249,2.249 c -1.973,1.97 -5.169,1.973 -7.142,0 -1.972,-1.974 -1.97,-5.173 0,-7.144 l 2.563,-2.561 0.527,-0.529 0.513,-0.511 0.002,-0.003 0.854,-0.852 c 0.89,-0.892 2.029,-1.377 3.195,-1.463 v -0.004 c 0,0 0,10e-4 10e-4,10e-4 0.243,-0.021 0.454,-0.024 0.632,-0.016 0.394,0.019 0.623,0.078 0.623,0.078 v 10e-4 c 0,0 0.002,0 0.003,0 0.983,0.175 1.927,0.642 2.686,1.403 0.74,0.738 1.204,1.65 1.388,2.604 0.007,0.028 0.01,0.056 0.016,0.083 0.862,-0.071 1.708,-0.436 2.368,-1.094 l 1.357,-1.358 c -0.465,-1.179 -1.171,-2.284 -2.125,-3.237 -0.954,-0.955 -2.058,-1.66 -3.238,-2.127 -0.217,-0.085 -0.437,-0.162 -0.658,-0.231 -0.185,-0.057 -0.373,-0.112 -0.561,-0.158 -0.014,-0.004 -0.026,-0.008 -0.038,-0.011 -0.034,-0.008 -0.067,-0.015 -0.102,-0.021 -1.953,-0.451 -4.019,-0.278 -5.886,0.516 -0.229,0.098 -0.458,0.202 -0.68,0.319 -0.013,0.007 -0.025,0.013 -0.037,0.018 -0.038,0.023 -0.072,0.043 -0.11,0.063 -0.095,0.05 -0.189,0.102 -0.282,0.156 -0.002,0.001 -0.002,0.001 -0.004,0.002 -0.677,0.399 -1.313,0.891 -1.895,1.474 l -4.076,4.076 c -3.726,3.724 -3.726,9.764 0,13.49 3.728,3.727 9.766,3.727 13.491,10e-4 z"
       id="path7"
       inkscape:connector-curvature="0"
       style="fill:#d1d2d3" /></g></svg>