<?xml version="1.0" encoding="utf-8"?><svg xmlns="http://www.w3.org/2000/svg" width="36" height="36" viewBox="0 0 36 36"><path d="M17.842 4.667l-4.077 4.078c-.352.352-.672.724-.957 1.114l-.177.259c1.969-.532 4.059-.5 6.014.096l.334-.335 2.248-2.246c1.973-1.972 5.172-1.972 7.144 0 1.971 1.972 1.971 5.168 0 7.142l-2.565 2.563-.527.527-.51.512-.004.002-.853.855c-.894.89-2.031 1.375-3.197 1.461v.004-.001c-.245.024-.452.024-.633.016-.394-.019-.624-.078-.624-.078v-.001h-.003c-.982-.174-1.926-.64-2.687-1.4-.739-.741-1.203-1.65-1.388-2.606l-.012-.082c-.864.072-1.709.433-2.369 1.093l-1.358 1.359c.465 1.178 1.17 2.286 2.125 3.236.954.953 2.057 1.662 3.235 2.127.219.087.438.162.66.232l.56.155.037.01.104.022c1.954.449 4.02.279 5.89-.516.229-.097.455-.203.679-.32l.037-.02.109-.061.281-.156.004-.004c.677-.396 1.313-.891 1.896-1.473l4.076-4.075c3.726-3.725 3.726-9.766 0-13.492-3.729-3.721-9.766-3.723-13.492.003zm.315 26.666l4.077-4.078c.354-.35.673-.724.957-1.112l.179-.261c-1.968.533-4.06.502-6.015-.095l-.334.332-2.249 2.249c-1.973 1.97-5.169 1.973-7.142 0-1.972-1.974-1.97-5.173 0-7.144l2.563-2.562.527-.529.513-.511.002-.003.854-.852c.89-.892 2.029-1.377 3.195-1.463v-.004l.001.001c.243-.021.454-.024.632-.016.394.019.623.078.623.078v.001h.003c.983.175 1.927.642 2.686 1.403.74.738 1.205 1.65 1.389 2.604l.016.083c.862-.071 1.708-.436 2.368-1.094l1.356-1.358c-.465-1.179-1.17-2.284-2.125-3.237-.953-.955-2.058-1.66-3.237-2.127-.218-.085-.437-.162-.658-.231l-.561-.158-.038-.011-.102-.021c-1.953-.451-4.019-.278-5.886.516-.229.098-.458.202-.68.319l-.037.018-.11.063-.282.156-.004.002c-.677.399-1.313.891-1.895 1.474l-4.076 4.076c-3.726 3.725-3.726 9.764 0 13.49 3.727 3.728 9.765 3.728 13.49.002z" fill="#aaa"/></svg>