<?xml version="1.0" encoding="UTF-8" standalone="no"?><svg xmlns="http://www.w3.org/2000/svg" width="36" height="36" viewBox="0 0 36 36"><path d="M18.157 4.667l4.077 4.078c.352.352.672.724.957 1.114l.177.259c-1.969-.532-4.059-.5-6.014.096l-.333-.335-2.249-2.246c-1.972-1.972-5.171-1.972-7.143 0-1.971 1.972-1.971 5.168 0 7.142l2.565 2.563.527.527.511.512.003.002.853.855c.893.89 2.031 1.375 3.197 1.461v.004-.001c.245.024.453.024.633.016.394-.019.624-.078.624-.078v-.001h.003c.982-.174 1.926-.64 2.687-1.4.739-.742 1.203-1.651 1.388-2.607l.012-.082c.864.072 1.709.433 2.369 1.093l1.358 1.359c-.465 1.178-1.17 2.286-2.125 3.237-.954.953-2.057 1.661-3.235 2.127-.219.086-.438.161-.66.232l-.56.155-.037.01-.104.022c-1.953.45-4.02.279-5.89-.516-.229-.096-.455-.203-.678-.319l-.038-.02-.109-.061-.281-.156-.004-.004c-.677-.397-1.314-.89-1.896-1.472l-4.076-4.076c-3.726-3.725-3.726-9.766 0-13.492 3.727-3.722 9.764-3.724 13.491.002zm-.315 26.666l-4.078-4.078c-.353-.35-.672-.724-.957-1.113l-.178-.26c1.968.533 4.059.502 6.015-.095l.334.332 2.249 2.249c1.973 1.97 5.169 1.973 7.142 0 1.972-1.974 1.97-5.173 0-7.144l-2.563-2.561-.527-.529-.513-.511-.002-.003-.854-.852c-.89-.892-2.029-1.377-3.195-1.463v-.004l-.001.001c-.243-.021-.454-.024-.632-.016-.394.019-.623.078-.623.078v.001h-.003c-.983.175-1.927.642-2.686 1.403-.74.738-1.204 1.65-1.388 2.604l-.016.083c-.862-.071-1.708-.436-2.368-1.094l-1.357-1.358c.465-1.179 1.171-2.284 2.125-3.237.954-.955 2.058-1.66 3.238-2.127.217-.085.437-.162.658-.231l.561-.158.038-.011.102-.021c1.953-.451 4.019-.278 5.886.516.229.098.458.202.68.319l.037.018.11.063.282.156.004.002c.677.399 1.313.891 1.895 1.474l4.076 4.076c3.726 3.724 3.726 9.764 0 13.49-3.728 3.727-9.766 3.727-13.491.001z" fill="#d1d2d3"/></svg>