<?xml version="1.0" encoding="utf-8"?>
<!-- Generator: Adobe Illustrator 17.0.2, SVG Export Plug-In . SVG Version: 6.00 Build 0)  -->
<!DOCTYPE svg PUBLIC "-//W3C//DTD SVG 1.1//EN" "http://www.w3.org/Graphics/SVG/1.1/DTD/svg11.dtd">
<svg version="1.1" id="Layer_1" xmlns="http://www.w3.org/2000/svg" xmlns:xlink="http://www.w3.org/1999/xlink" x="0px" y="0px"
	 width="36px" height="36px" viewBox="0 0 36 36" enable-background="new 0 0 36 36" xml:space="preserve">
<g>
	<path fill="#AAAAAA" d="M17.842,4.667l-4.077,4.078c-0.352,0.352-0.672,0.724-0.957,1.114c-0.062,0.086-0.121,0.174-0.177,0.259
		c1.969-0.532,4.059-0.5,6.014,0.096l0.334-0.335l2.248-2.246c1.973-1.972,5.172-1.972,7.144,0c1.971,1.972,1.971,5.168,0,7.142
		l-2.565,2.563l-0.527,0.527l-0.51,0.512l-0.004,0.002l-0.853,0.855c-0.894,0.89-2.031,1.375-3.197,1.461v0.004v-0.001
		c-0.245,0.024-0.452,0.024-0.633,0.016c-0.394-0.019-0.624-0.078-0.624-0.078c0-0.001,0-0.001,0-0.001h-0.003
		c-0.982-0.174-1.926-0.64-2.687-1.4c-0.739-0.741-1.203-1.65-1.388-2.606c-0.003-0.027-0.008-0.052-0.012-0.082
		c-0.864,0.072-1.709,0.433-2.369,1.093l-1.358,1.359c0.465,1.178,1.17,2.286,2.125,3.236c0.954,0.953,2.057,1.662,3.235,2.127
		c0.219,0.087,0.438,0.162,0.66,0.232c0.183,0.057,0.372,0.109,0.56,0.155c0.014,0.003,0.025,0.008,0.037,0.01
		c0.035,0.011,0.07,0.015,0.104,0.022c1.954,0.449,4.02,0.279,5.89-0.516c0.229-0.097,0.455-0.203,0.679-0.32
		c0.012-0.006,0.023-0.01,0.037-0.02c0.035-0.021,0.073-0.037,0.109-0.061c0.094-0.051,0.189-0.1,0.281-0.156
		c0,0,0.002,0,0.004-0.004c0.677-0.396,1.313-0.891,1.896-1.473l4.076-4.075c3.726-3.725,3.726-9.766,0-13.492
		C27.605,0.943,21.568,0.941,17.842,4.667z"/>
	<path fill="#AAAAAA" d="M18.157,31.333l4.077-4.078c0.354-0.35,0.673-0.724,0.957-1.112c0.062-0.084,0.119-0.174,0.179-0.261
		c-1.968,0.533-4.06,0.502-6.015-0.095l-0.334,0.332l-2.249,2.249c-1.973,1.97-5.169,1.973-7.142,0c-1.972-1.974-1.97-5.173,0-7.144
		l2.563-2.562l0.527-0.529l0.513-0.511l0.002-0.003l0.854-0.852c0.89-0.892,2.029-1.377,3.195-1.463V15.3c0,0,0,0.001,0.001,0.001
		c0.243-0.021,0.454-0.024,0.632-0.016c0.394,0.019,0.623,0.078,0.623,0.078v0.001c0,0,0.002,0,0.003,0
		c0.983,0.175,1.927,0.642,2.686,1.403c0.74,0.738,1.205,1.65,1.389,2.604c0.007,0.028,0.01,0.056,0.016,0.083
		c0.862-0.071,1.708-0.436,2.368-1.094l1.356-1.358c-0.465-1.179-1.17-2.284-2.125-3.237c-0.953-0.955-2.058-1.66-3.237-2.127
		c-0.218-0.085-0.437-0.162-0.658-0.231c-0.185-0.057-0.373-0.112-0.561-0.158c-0.014-0.004-0.026-0.008-0.038-0.011
		c-0.034-0.008-0.067-0.015-0.102-0.021c-1.953-0.451-4.019-0.278-5.886,0.516c-0.229,0.098-0.458,0.202-0.68,0.319
		c-0.013,0.007-0.025,0.013-0.037,0.018c-0.038,0.023-0.072,0.043-0.11,0.063c-0.095,0.05-0.189,0.102-0.282,0.156
		c-0.002,0.001-0.002,0.001-0.004,0.002c-0.677,0.399-1.313,0.891-1.895,1.474l-4.076,4.076c-3.726,3.725-3.726,9.764,0,13.49
		C8.394,35.059,14.432,35.059,18.157,31.333z"/>
</g>
</svg>
