<?xml version="1.0" encoding="UTF-8" standalone="no"?><svg xmlns="http://www.w3.org/2000/svg" width="36" height="36" viewBox="0 0 36 36"><path d="M31.556 25.126c-2.633 2.643-6.138 4.101-9.868 4.111-3.279.007-6.385-1.112-8.881-3.171l-9.606 8.618s-2.274-.604-2.822-3.144l9.611-8.629c-3.562-5.43-2.939-12.751 1.779-17.489 2.633-2.643 6.135-4.099 9.865-4.107 3.729-.009 7.237 1.438 9.877 4.067 5.493 5.459 5.451 14.314.045 19.744zm-2.309-16.642l-.401-.421c-1.928-1.921-4.486-2.976-7.205-2.969-2.717.006-5.276 1.069-7.195 2.997-3.946 3.961-3.976 10.406.031 14.399 1.924 1.92 4.484 2.973 7.204 2.97 2.722-.007 5.274-1.072 7.193-2.999 3.813-3.827 3.975-9.968.373-13.977z" fill="#999"/></svg>