<?xml version="1.0" encoding="utf-8"?><!DOCTYPE svg PUBLIC "-//W3C//DTD SVG 1.1//EN" "http://www.w3.org/Graphics/SVG/1.1/DTD/svg11.dtd"><svg version="1.1" id="Layer_1" xmlns="http://www.w3.org/2000/svg" xmlns:xlink="http://www.w3.org/1999/xlink" x="0px" y="0px"   width="36px" height="36px" viewBox="0 0 36 36" enable-background="new 0 0 36 36" xml:space="preserve"><path fill="#999999" d="M4.444,25.126c2.633,2.643,6.138,4.101,9.868,4.111c3.279,0.007,6.385-1.112,8.881-3.171l9.606,8.618  c0,0,2.274-0.604,2.822-3.144l-9.611-8.629c3.562-5.43,2.939-12.751-1.779-17.489c-2.633-2.643-6.135-4.099-9.865-4.107  c-3.729-0.009-7.237,1.438-9.877,4.067C-1.004,10.841-0.962,19.696,4.444,25.126z M6.753,8.484c0.129-0.143,0.262-0.282,0.401-0.421  c1.928-1.921,4.486-2.976,7.205-2.969c2.717,0.006,5.276,1.069,7.195,2.997c3.946,3.961,3.976,10.406-0.031,14.399  c-1.924,1.92-4.484,2.973-7.204,2.97c-2.722-0.007-5.274-1.072-7.193-2.999C3.313,18.634,3.151,12.493,6.753,8.484z"/></svg>