<?xml version="1.0" encoding="UTF-8" standalone="no"?>
<svg
   xmlns:dc="http://purl.org/dc/elements/1.1/"
   xmlns:cc="http://creativecommons.org/ns#"
   xmlns:rdf="http://www.w3.org/1999/02/22-rdf-syntax-ns#"
   xmlns:svg="http://www.w3.org/2000/svg"
   xmlns="http://www.w3.org/2000/svg"
   xmlns:sodipodi="http://sodipodi.sourceforge.net/DTD/sodipodi-0.dtd"
   xmlns:inkscape="http://www.inkscape.org/namespaces/inkscape"
   version="1.1"
   id="Layer_1"
   x="0px"
   y="0px"
   width="36px"
   height="36px"
   viewBox="0 0 36 36"
   enable-background="new 0 0 36 36"
   xml:space="preserve"
   inkscape:version="0.48.4 r9939"
   sodipodi:docname="search_normal_rtl.svg"><metadata
     id="metadata9"><rdf:RDF><cc:Work
         rdf:about=""><dc:format>image/svg+xml</dc:format><dc:type
           rdf:resource="http://purl.org/dc/dcmitype/StillImage" /></cc:Work></rdf:RDF></metadata><defs
     id="defs7" /><sodipodi:namedview
     pagecolor="#ffffff"
     bordercolor="#666666"
     borderopacity="1"
     objecttolerance="10"
     gridtolerance="10"
     guidetolerance="10"
     inkscape:pageopacity="0"
     inkscape:pageshadow="2"
     inkscape:window-width="640"
     inkscape:window-height="480"
     id="namedview5"
     showgrid="false"
     inkscape:zoom="6.5555556"
     inkscape:cx="18"
     inkscape:cy="18"
     inkscape:window-x="0"
     inkscape:window-y="27"
     inkscape:window-maximized="0"
     inkscape:current-layer="Layer_1" /><path
     d="m 31.556375,25.126 c -2.633,2.643 -6.138,4.101 -9.868,4.111 -3.279,0.007 -6.385,-1.112 -8.881,-3.171 l -9.6060001,8.618 c 0,0 -2.27399998,-0.604 -2.82199998,-3.144 L 9.9903749,22.911 c -3.562,-5.43 -2.939,-12.751 1.7790001,-17.489 2.633,-2.643 6.135,-4.099 9.865,-4.107 3.729,-0.009 7.237,1.438 9.877,4.067 5.493,5.459 5.451,14.314 0.045,19.744 z m -2.309,-16.642 c -0.129,-0.143 -0.262,-0.282 -0.401,-0.421 -1.928,-1.921 -4.486,-2.976 -7.205,-2.969 -2.717,0.006 -5.276,1.069 -7.195,2.997 -3.946,3.961 -3.976,10.406 0.031,14.399 1.924,1.92 4.484,2.973 7.204,2.97 2.722,-0.007 5.274,-1.072 7.193,-2.999 3.813,-3.827 3.975,-9.968 0.373,-13.977 z"
     id="path3"
     inkscape:connector-curvature="0"
     style="fill:#d0d2d3" /></svg>