<?xml version="1.0" encoding="utf-8"?><svg xmlns="http://www.w3.org/2000/svg" width="23.352" height="28.015" viewBox="0 0 23.352 28.015"><path fill="#A6A6A6" d="M13.68 21.804l.221-.965c.303-.031.656-.07 1.061-.125.406-.055.721-.113.945-.184.303-.098.529-.199.682-.305.15-.109.227-.273.227-.498 0-.078-.059-.557-.174-1.432-.115-.879-.279-2.109-.492-3.698h-7.304c-.322.507-.664 1.093-1.025 1.761-.359.668-.639 1.176-.834 1.527-.176.312-.344.66-.504 1.045-.163.385-.243.641-.243.768 0 .32.258.578.775.773s1.168.316 1.949.367l-.221.965h-7.98l.219-.965c.256-.02.584-.076.99-.168.404-.094.744-.219 1.018-.375.342-.195.672-.438.988-.727.318-.285.656-.719 1.02-1.295 1.688-2.676 3.541-5.654 5.559-8.936 2.016-3.281 3.791-6.152 5.324-8.613h1.172l2.77 18.004c.059.359.154.664.293.914.135.25.34.48.613.695.195.137.459.254.793.344.33.094.623.145.879.156l-.221.965h-8.5zm2.25-8.437l-1.307-8.112-4.979 8.112h6.286zm-15.223 12.648h21.75v2h-21.75z"/></svg>