<?xml version="1.0" encoding="utf-8"?>
<!-- Generator: Adobe Illustrator 16.0.4, SVG Export Plug-In . SVG Version: 6.00 Build 0)  -->
<!DOCTYPE svg PUBLIC "-//W3C//DTD SVG 1.1//EN" "http://www.w3.org/Graphics/SVG/1.1/DTD/svg11.dtd">
<svg version="1.1" id="Layer_1" xmlns="http://www.w3.org/2000/svg" xmlns:xlink="http://www.w3.org/1999/xlink" x="0px" y="0px"
	 width="23.352px" height="28.015px" viewBox="0 0 23.352 28.015" enable-background="new 0 0 23.352 28.015" xml:space="preserve">
<g>
	<g>
		<path fill="#A6A6A6" d="M13.68,21.804l0.221-0.965c0.303-0.031,0.656-0.07,1.061-0.125c0.406-0.055,0.721-0.113,0.945-0.184
			c0.303-0.098,0.529-0.199,0.682-0.305c0.15-0.109,0.227-0.273,0.227-0.498c0-0.078-0.059-0.557-0.174-1.432
			c-0.115-0.879-0.279-2.109-0.492-3.698H8.846c-0.322,0.507-0.664,1.093-1.025,1.761c-0.359,0.668-0.639,1.176-0.834,1.527
			c-0.176,0.312-0.344,0.66-0.504,1.045C6.32,19.315,6.24,19.571,6.24,19.698c0,0.32,0.258,0.578,0.775,0.773
			s1.168,0.316,1.949,0.367l-0.221,0.965h-7.98l0.219-0.965c0.256-0.02,0.584-0.076,0.99-0.168c0.404-0.094,0.744-0.219,1.018-0.375
			c0.342-0.195,0.672-0.438,0.988-0.727c0.318-0.285,0.656-0.719,1.02-1.295c1.688-2.676,3.541-5.654,5.559-8.936
			c2.016-3.281,3.791-6.152,5.324-8.613h1.172l2.77,18.004c0.059,0.359,0.154,0.664,0.293,0.914c0.135,0.25,0.34,0.48,0.613,0.695
			c0.195,0.137,0.459,0.254,0.793,0.344c0.33,0.094,0.623,0.145,0.879,0.156l-0.221,0.965H13.68z M15.93,13.367l-1.307-8.112
			l-4.979,8.112H15.93z"/>
	</g>
	<g>
		<rect x="0.707" y="26.015" fill="#A6A6A6" width="21.75" height="2"/>
	</g>
</g>
</svg>
