<?xml version="1.0" encoding="utf-8"?>
<!-- Generator: Adobe Illustrator 16.0.4, SVG Export Plug-In . SVG Version: 6.00 Build 0)  -->
<!DOCTYPE svg PUBLIC "-//W3C//DTD SVG 1.1//EN" "http://www.w3.org/Graphics/SVG/1.1/DTD/svg11.dtd">
<svg version="1.1" id="Layer_1" xmlns="http://www.w3.org/2000/svg" xmlns:xlink="http://www.w3.org/1999/xlink" x="0px" y="0px"
	 width="36px" height="36px" viewBox="0 0 36 36" enable-background="new 0 0 36 36" xml:space="preserve">
<g>
	<path fill="#909090" d="M26.488,3.68c2.289,0,4.152,1.859,4.152,4.152c0,2.289-1.863,4.146-4.152,4.146
		c-2.293,0-4.156-1.857-4.156-4.146C22.332,5.54,24.195,3.68,26.488,3.68z"/>
	<path fill="#909090" d="M9.293,3.68c2.289,0,4.145,1.859,4.145,4.152c0,2.289-1.855,4.146-4.145,4.146
		c-2.293,0-4.152-1.857-4.152-4.146C5.141,5.54,7,3.68,9.293,3.68z"/>
	<path fill="#909090" d="M18,32.32c-9.534,0-17.261-7.734-17.261-17.267c0,0,8.641,3.732,17.628,3.732
		c9.184,0,16.895-3.732,16.895-3.732C35.262,24.586,27.527,32.32,18,32.32z"/>
</g>
</svg>
