<?xml version="1.0" encoding="utf-8"?><svg xmlns="http://www.w3.org/2000/svg" width="36" height="36" viewBox="0 0 36 36"><g fill="#909090"><path d="M26.488 3.68c2.289 0 4.152 1.859 4.152 4.152 0 2.289-1.863 4.146-4.152 4.146-2.293 0-4.156-1.857-4.156-4.146 0-2.292 1.863-4.152 4.156-4.152zM9.293 3.68c2.289 0 4.145 1.859 4.145 4.152 0 2.289-1.855 4.146-4.145 4.146-2.293 0-4.152-1.857-4.152-4.146 0-2.292 1.859-4.152 4.152-4.152zM18 32.32c-9.534 0-17.261-7.734-17.261-17.267 0 0 8.641 3.732 17.628 3.732 9.184 0 16.895-3.732 16.895-3.732 0 9.533-7.735 17.267-17.262 17.267z"/></g></svg>