<?xml version="1.0" encoding="utf-8"?><svg xmlns="http://www.w3.org/2000/svg" width="36" height="36" viewBox="0 0 36 36"><path fill="#999" d="M18.064 8.086l2.633 5.483.713 1.486 1.629.255 6.01.941-4.4 4.198-1.192 1.139.26 1.625.966 6.008-5.353-2.889-1.451-.785-1.468.754-5.417 2.773 1.093-5.986.295-1.621-1.167-1.164-4.309-4.291 6.029-.81 1.633-.22.746-1.47 2.75-5.426m.077-7.084l-5.625 11.092-12.326 1.656 8.811 8.775-2.234 12.237 11.072-5.67 10.942 5.906-1.969-12.281 8.998-8.583-12.287-1.921-5.382-11.211z"/></svg>