<?xml version="1.0" encoding="utf-8"?><!DOCTYPE svg PUBLIC "-//W3C//DTD SVG 1.1//EN" "http://www.w3.org/Graphics/SVG/1.1/DTD/svg11.dtd"><svg version="1.1" id="Layer_1" xmlns="http://www.w3.org/2000/svg" xmlns:xlink="http://www.w3.org/1999/xlink" x="0px" y="0px"   width="36px" height="36px" viewBox="0 0 36 36" enable-background="new 0 0 36 36" xml:space="preserve"><path fill="#D1D2D3" d="M18.064,8.086l2.633,5.483l0.713,1.486l1.629,0.255l6.01,0.941l-4.4,4.198l-1.193,1.139l0.26,1.625  l0.965,6.008l-5.352-2.889l-1.451-0.785l-1.468,0.754l-5.417,2.773l1.093-5.986l0.295-1.621l-1.167-1.164l-4.309-4.291l6.029-0.81  l1.633-0.22l0.746-1.47L18.064,8.086 M18.141,1.002l-5.625,11.092L0.19,13.75l8.811,8.775L6.767,34.762l11.072-5.67l10.942,5.906  l-1.969-12.281l8.998-8.583l-12.287-1.921L18.141,1.002L18.141,1.002z"/></svg>