<?xml version="1.0" encoding="UTF-8" standalone="no"?>
<svg width="30px" height="30px" viewBox="0 0 30 30" version="1.1" xmlns="http://www.w3.org/2000/svg" xmlns:xlink="http://www.w3.org/1999/xlink" xmlns:sketch="http://www.bohemiancoding.com/sketch/ns">
    <!-- Generator: Sketch 3.4.4 (17249) - http://www.bohemiancoding.com/sketch -->
    <title>flow-topic-renamed</title>
    <desc>Created with Sketch.</desc>
    <defs></defs>
    <g id="Page-1" stroke="none" stroke-width="1" fill="none" fill-rule="evenodd" sketch:type="MSPage">
        <g id="flow-topic-renamed" sketch:type="MSArtboardGroup" fill="#165CA0">
            <path d="M25,22 L29,26 L2.99124431,26 C1.89151044,26 1,25.1103261 1,24.008845 L1,4 L25,4 L25,22 Z M21.125,10.7835938 C21.0757812,9.93046875 20.6820312,9.11015625 20.0914062,8.45390625 C19.5007812,7.78125 18.6640625,7.27265625 17.778125,7.125 C15.1695312,9.47109375 8.57421875,15.39375 6.29375,17.428125 L5.375,21.5789067 L9.62421875,21.1195317 C11.9210937,19.0523438 18.5164062,13.1296875 21.125,10.7835938 Z M8.39375,18.6421875 C8.065625,18.3140625 7.78671875,18.1171875 7.409375,17.8546875 L17.7289062,8.51953125 C18.0734375,8.634375 18.565625,8.91328125 18.7132812,9.30703125 L8.39375,18.6421875 L8.39375,18.6421875 Z" id="Shape-Copy-8" sketch:type="MSShapeGroup"></path>
        </g>
    </g>
</svg>