<?xml version="1.0" encoding="UTF-8"?>
<svg xmlns="http://www.w3.org/2000/svg" width="30" height="30" viewBox="0 0 30 30">
	<path fill="#00af89" fill-rule="evenodd" d="M25.5 26H0l4.5-4.5V5H30v16.5c0 2.55-1.95 4.5-4.5 4.5zm-6.05-7.2c-.63-.21-.63-.77-.7-1.4v-.07c.98-.84 1.75-2.24 1.75-3.78C20.5 10.26 19.1 9 17 9c-1.47 0-3.5.84-3.5 4.55 0 1.47.77 2.87 1.75 3.78v.07c0 .63-.07 1.19-.7 1.4 0 0-2.03.77-2.8 1.05-.91.28-1.75.7-1.75 1.75v.7h14v-.7c0-.84-.56-1.4-1.75-1.75-.84-.28-2.8-1.05-2.8-1.05z"/>
</svg>
