<?xml version="1.0" encoding="UTF-8" standalone="no"?>
<svg width="30" height="30" viewBox="0 0 30 30" xmlns="http://www.w3.org/2000/svg">
    <g fill="none" fill-rule="evenodd">
        <path fill="#165CA0" d="M25 22l4 4H2.99C1.893 26 1 25.11 1 24.01V4h24v18zm-3.875-11.216c-.05-.854-.443-1.674-1.034-2.33-.59-.673-1.426-1.18-2.312-1.33-2.608 2.347-9.204 8.27-11.484 10.304l-.92 4.15 4.25-.458c2.297-2.068 8.892-7.99 11.5-10.336zm-12.73 7.858c-.33-.328-.608-.525-.986-.787L17.73 8.52c.343.114.836.393.983.787l-10.32 9.335z"/>
    </g>
</svg>
