<?xml version="1.0" encoding="UTF-8"?>
<svg xmlns="http://www.w3.org/2000/svg" width="30" height="30" viewBox="0 0 30 30">
	<path fill="#36c" fill-rule="evenodd" d="M27.143 10.143V23L30 25.857H10V10.143h17.143zM2.857 3H20v5.714H8.57v10H0l2.857-2.857V3zm21.518 12.206c-.038-.66-.343-1.295-.8-1.803-.457-.52-1.104-.914-1.79-1.028a4900.443 4900.443 0 0 1-8.887 7.973l-.71 3.212 3.288-.356c1.777-1.6 6.88-6.183 8.9-7.998zm-9.852 6.08c-.253-.253-.47-.405-.76-.608l7.984-7.224c.267.09.648.305.762.61l-7.987 7.223z"/>
</svg>
