<?xml version="1.0" encoding="UTF-8" standalone="no"?>
<svg width="30px" height="30px" viewBox="0 0 30 30" version="1.1" xmlns="http://www.w3.org/2000/svg" xmlns:xlink="http://www.w3.org/1999/xlink" xmlns:sketch="http://www.bohemiancoding.com/sketch/ns">
    <!-- Generator: Sketch 3.4.4 (17249) - http://www.bohemiancoding.com/sketch -->
    <title>flow-post-edited</title>
    <desc>Created with Sketch.</desc>
    <defs></defs>
    <g id="Page-1" stroke="none" stroke-width="1" fill="none" fill-rule="evenodd" sketch:type="MSPage">
        <g id="flow-post-edited" sketch:type="MSArtboardGroup" fill="#165CA0">
            <path d="M27.1428571,10.1428571 L27.1428571,23 L30,25.8571429 L10,25.8571429 L10,10.1428571 L27.1428571,10.1428571 L27.1428571,10.1428571 Z M2.85714286,3 L20,3 L20,8.71428571 L8.57142857,8.71428571 L8.57142857,18.7142857 L0,18.7142857 L2.85714286,15.8571429 L2.85714286,3 Z M24.375,15.2060547 C24.3369141,14.5458984 24.0322266,13.9111328 23.5751953,13.4033203 C23.1181641,12.8828125 22.4707031,12.4892578 21.7851562,12.375 C19.7666016,14.1904297 14.6630859,18.7734375 12.8984375,20.3476562 L12.1875,23.5595707 L15.4755859,23.2041019 C17.2529297,21.6044922 22.3564453,17.0214844 24.375,15.2060547 Z M14.5234375,21.2871094 C14.2695312,21.0332031 14.0537109,20.8808594 13.7617188,20.6777344 L21.7470703,13.4541016 C22.0136719,13.5429688 22.3945312,13.7587891 22.5087891,14.0634766 L14.5234375,21.2871094 L14.5234375,21.2871094 Z" id="flw-post-edited" sketch:type="MSShapeGroup"></path>
        </g>
    </g>
</svg>