<?xml version="1.0" encoding="UTF-8" standalone="no"?>
<svg width="30px" height="30px" viewBox="0 0 30 30" version="1.1" xmlns="http://www.w3.org/2000/svg" xmlns:xlink="http://www.w3.org/1999/xlink" xmlns:sketch="http://www.bohemiancoding.com/sketch/ns">
    <!-- Generator: Sketch 3.5.1 (25234) - http://www.bohemiancoding.com/sketch -->
    <title>flow-new-reopened</title>
    <desc>Created with Sketch.</desc>
    <defs></defs>
    <g id="Page-1" stroke="none" stroke-width="1" fill="none" fill-rule="evenodd" sketch:type="MSPage">
        <g id="flow-new-reopened" sketch:type="MSArtboardGroup" fill="#165CA0">
            <path d="M25.5,26 L0,26 L4.5,21.5 L4.5,5 L30,5 L30,21.5 C30,24.05 28.05,26 25.5,26 Z M13.5,15 C13.5,15.6 13.3,16 12.9,16.4 C12.5,16.8 12,17 11.5,17 C10.9,17 10.5,16.8 10.1,16.4 C9.7,16 9.5,15.5 9.5,15 C9.5,14.5 9.7,14 10.1,13.6 C10.5,13.2 11,13 11.5,13 C12,13 12.5,13.2 12.9,13.6 C13.3,14 13.5,14.5 13.5,15 Z M19.5,15 C19.5,15.6 19.3,16 18.9,16.4 C18.5,16.8 18,17 17.5,17 C16.9,17 16.5,16.8 16.1,16.4 C15.7,16 15.5,15.5 15.5,15 C15.5,14.5 15.7,14 16.1,13.6 C16.5,13.2 17,13 17.5,13 C18,13 18.5,13.2 18.9,13.6 C19.3,14 19.5,14.5 19.5,15 Z M25.5,15 C25.5,15.6 25.3,16 24.9,16.4 C24.5,16.8 24,17 23.5,17 C22.9,17 22.5,16.8 22.1,16.4 C21.7,16 21.5,15.5 21.5,15 C21.5,14.5 21.7,14 22.1,13.6 C22.5,13.2 23,13 23.5,13 C24,13 24.5,13.2 24.9,13.6 C25.3,14 25.5,14.5 25.5,15 Z" id="new-topic" sketch:type="MSShapeGroup"></path>
        </g>
    </g>
</svg>