<?xml version="1.0" encoding="UTF-8"?>
<svg xmlns="http://www.w3.org/2000/svg" width="30" height="30" viewBox="0 0 30 30">
	<path fill="#36c" fill-rule="evenodd" d="M25.5 26H0l4.5-4.5V5H30v16.5c0 2.55-1.95 4.5-4.5 4.5zm-12-11c0 .6-.2 1-.6 1.4-.4.4-.9.6-1.4.6-.6 0-1-.2-1.4-.6-.4-.4-.6-.9-.6-1.4 0-.5.2-1 .6-1.4.4-.4.9-.6 1.4-.6.5 0 1 .2 1.4.6.4.4.6.9.6 1.4zm6 0c0 .6-.2 1-.6 1.4-.4.4-.9.6-1.4.6-.6 0-1-.2-1.4-.6-.4-.4-.6-.9-.6-1.4 0-.5.2-1 .6-1.4.4-.4.9-.6 1.4-.6.5 0 1 .2 1.4.6.4.4.6.9.6 1.4zm6 0c0 .6-.2 1-.6 1.4-.4.4-.9.6-1.4.6-.6 0-1-.2-1.4-.6-.4-.4-.6-.9-.6-1.4 0-.5.2-1 .6-1.4.4-.4.9-.6 1.4-.6.5 0 1 .2 1.4.6.4.4.6.9.6 1.4z"/>
</svg>
