<?xml version="1.0" encoding="UTF-8" standalone="no"?>
<svg width="30px" height="30px" viewBox="0 0 30 30" version="1.1" xmlns="http://www.w3.org/2000/svg" xmlns:xlink="http://www.w3.org/1999/xlink" xmlns:sketch="http://www.bohemiancoding.com/sketch/ns">
    <!-- Generator: Sketch 3.4.4 (17249) - http://www.bohemiancoding.com/sketch -->
    <title>flow-usertalk-new-topic</title>
    <desc>Created with Sketch.</desc>
    <defs></defs>
    <g id="Page-1" stroke="none" stroke-width="1" fill="none" fill-rule="evenodd" sketch:type="MSPage">
        <g id="flow-usertalk-new-topic" sketch:type="MSArtboardGroup" fill="#00AF89">
            <path d="M25.5,26 L0,26 L4.5,21.5 L4.5,5 L30,5 L30,21.5 C30,24.05 28.05,26 25.5,26 Z M19.45,18.8 C18.82,18.59 18.82,18.03 18.75,17.4 L18.75,17.33 C19.73,16.49 20.5,15.09 20.5,13.55 C20.5,10.26 19.1,9 17,9 C15.53,9 13.5,9.84 13.5,13.55 C13.5,15.02 14.27,16.42 15.25,17.33 L15.25,17.4 C15.25,18.03 15.18,18.59 14.55,18.8 C14.55,18.8 12.52,19.57 11.75,19.85 C10.84,20.13 10,20.55 10,21.6 L10,22.3 L24,22.3 L24,21.6 C24,20.76 23.44,20.2 22.25,19.85 C21.41,19.57 19.45,18.8 19.45,18.8 Z" id="new-topic" sketch:type="MSShapeGroup"></path>
        </g>
    </g>
</svg>