<?xml version="1.0" standalone="no"?>
<!DOCTYPE svg PUBLIC "-//W3C//DTD SVG 1.1//EN" "http://www.w3.org/Graphics/SVG/1.1/DTD/svg11.dtd" >
<svg xmlns="http://www.w3.org/2000/svg">
<metadata>
Created by FontPrep 20130207 at Tue Sep  9 22:46:02 2014
 By May Tee-Galloway
Modified BSD License
</metadata>
<defs>
<font id="1b21e434c004bb0ef5da181d3ec74d04" horiz-adv-x='1024' >
  <font-face 
    font-family="WikiFont-Glyphs"
    font-weight="400"
    font-stretch="normal"
    units-per-em="2048"
    panose-1="0 0 5 0 0 0 0 0 0 0"
    ascent="1638"
    descent="-410"
    bbox="10.8621 -308 2049 1792"
    underline-thickness="50"
    underline-position="-25"
    unicode-range="U+0020-E903"
  />
<missing-glyph horiz-adv-x="600" 
 />
    <glyph glyph-name=".notdef" horiz-adv-x="600" 
 />
    <glyph glyph-name=".null" horiz-adv-x="0" 
 />
    <glyph glyph-name="nonmarkingreturn" horiz-adv-x="682" 
 />
    <glyph glyph-name="space" unicode=" " horiz-adv-x="600" 
 />
    <glyph glyph-name="uniE000" unicode="&#xe000;" 
d="M877 1073q-88 -1 -164 -55t-110 -132q-35 -78 -23 -170t76 -163q96 -95 224 -99t226 89q56 55 78 128t6 142t-54 128t-104 95t-155 37zM888 1305q224 0 383 -160q137 -137 157 -328t-85 -349l362 -362l-61 -61q-43 -43 -103 -43t-102 43l-260 258q-159 -103 -351 -81
t-327 156q-103 104 -140 244t0 280t142 244q161 159 385 159z" />
    <glyph glyph-name="uniE001" unicode="&#xe001;" 
d="M790 755h802q60 -1 102 -43t42 -102v-84h-946v-309l-477 405l477 441v-308z" />
    <glyph glyph-name="uniE002" unicode="&#xe002;" 
d="M1585 1143q60 0 102 -42l58 -60l-959 -959l-497 497l161 161l336 -335l696 696q43 42 103 42z" />
    <glyph glyph-name="uniE003" unicode="&#xe003;" 
d="M1513 1032q0 -59 -42 -102l-291 -293l393 -393l-162 -162l-393 393l-395 -393l-60 60q-43 42 -43 102t43 102l292 292l-379 379l162 162l379 -379l394 394l60 -60q42 -43 42 -102z" />
    <glyph glyph-name="uniE004" unicode="&#xe004;" 
d="M1024 568l299 -298l122 122l-298 299l298 299l-122 122l-299 -298l-287 288l-124 -124l288 -287l-298 -299l122 -122zM1024 1386q142 0 270 -55t222 -149t148 -222q55 -128 55 -269t-55 -269q-54 -128 -148 -222t-222 -149t-270 -55t-270 55t-222 149t-148 222
q-55 128 -55 269t55 269q54 128 148 222t222 149t270 55z" />
    <glyph glyph-name="uniE005" unicode="&#xe005;" 
d="M1142 803l-118 239l-118 -239l-265 -39l192 -186l-46 -264l237 124l237 -124l-46 264l191 186zM792 960l232 471l232 -471l520 -75l-376 -367l89 -518l-465 244l-465 -243l89 517l-376 367z" />
    <glyph glyph-name="uniE006" unicode="&#xe006;" horiz-adv-x="2053" 
d="M794 965l233 474l232 -474l522 -76l-377 -368l90 -521l-467 245l-467 -243l89 519l-377 368z" />
    <glyph glyph-name="uniE007" unicode="&#xe007;" 
d="M1094 624h438v-150h-438v150zM1094 387h550v-150h-550v150zM1094 150h340v-150h-340v150zM1006 711v-429l-409 -213l79 453l-331 320l457 66l204 412q204 -412 214 -414l448 -64l-136 -131h-526z" />
    <glyph glyph-name="uniE008" unicode="&#xe008;" 
d="M1544 1202q0 -42 -26 -81l-118 -117l-73 69l191 192q26 -21 26 -63zM1503 751h272q0 -42 -30 -73t-71 -31h-171v104zM974 1174v272q42 0 73 -30t31 -71v-171h-104zM1518 178q-42 0 -71 29l-120 119l71 71l191 -190q-29 -29 -71 -29zM530 1223q41 0 70 -29l120 -120
l-71 -72l-189 192q29 29 70 29zM973 219h104v-272q-42 0 -73 30t-31 71v171zM373 751h171v-104h-272q0 42 30 73t71 31zM530 276l120 120l71 -71l-190 -191q-29 29 -29 71t28 71zM1026 1062q151 0 257 -106t106 -258t-106 -258t-256 -106t-258 108t-108 257q0 151 107 257
t258 106z" />
    <glyph glyph-name="uniE009" unicode="&#xe009;" 
d="M1138 0h-86q-59 0 -101 42t-42 101v325l-619 648h1469l-621 -650v-466z" />
    <glyph glyph-name="uniE010" unicode="&#xe010;" 
d="M1024 867q73 0 125 -52t52 -125q0 -74 -52 -126q-51 -52 -125 -52t-126 52t-52 126t52 125q52 52 126 52zM1024 363q134 0 230 96q96 97 96 231t-96 230t-230 96t-230 -96t-96 -230t96 -231q96 -96 230 -96zM1012 1212q92 0 186 -30t178 -72q83 -44 173 -104
q139 -92 247 -187t143 -129l-30 -29q-66 -64 -171 -148q-179 -144 -367 -245t-347 -101q-285 1 -575 207q-138 98 -228 192t-113 124l24 29q49 62 143 147q93 84 175 140t168 102q88 46 195 75t199 29z" />
    <glyph glyph-name="uniE011" unicode="&#xe011;" 
d="M1112 137h-172v253q-104 7 -207 35l-87 -230l-160 61l85 226q-101 46 -182 104l-153 -181l-131 110l153 182q-96 94 -167 213l90 52q45 28 97 19t87 -50q121 -149 294 -231t367 -82t368 82q172 82 293 231q35 41 87 50t98 -19l83 -54q-71 -118 -162 -209l165 -196
l-131 -110l-164 194q-85 -61 -179 -104l89 -234l-161 -61l-90 237q-105 -28 -210 -35v-253z" />
    <glyph glyph-name="uniE012" unicode="&#xe012;" 
d="M731 990v302h-66q-36 0 -61 -26t-25 -60v-216h152zM616 1397h721q48 0 82 -34t34 -82v-1326l-360 240l-349 -240v929h-271v370q0 59 42 101t101 42z" />
    <glyph glyph-name="uniE013" unicode="&#xe013;" 
d="M1392 1039v222h-672q-23 0 -40 -17t-17 -40v-165h729zM1387 100v548h-738v-548h738zM703 1361h784v-322h189q60 0 102 -42t42 -101v-640h-333v-256h-939v256h-221q-41 0 -70 29t-29 70v684h332v179q0 59 42 101t101 42z" />
    <glyph glyph-name="uniE014" unicode="&#xe014;" 
d="M732 1082l256 255l266 -266q4 -4 10 -2q7 2 10 40q6 82 54 122t107 41t111 -47l16 -16q62 -63 62 -125t-36 -104t-82 -52t-64 -10t-20 -6t2 -11l266 -266l-258 -258q-4 -5 -2 -11t8 -6q8 -1 36 -4t43 -6q50 -11 86 -54t37 -102t-47 -110l-16 -16q-64 -64 -125 -64
t-109 42q-48 41 -54 123q-4 61 -21 44l-292 -292l-279 279q-12 12 5 17t52 8t49 6q50 9 86 53t37 104t-47 108l-16 17q-21 24 -61 44q-40 19 -82 19t-85 -36t-54 -87q-3 -13 -6 -48t-8 -52t-17 -6l-276 276l289 289q4 4 2 10q-1 6 -5 6t-33 4q-29 3 -43 6q-50 11 -86 54
t-37 102t47 110l16 16q64 64 124 64t108 -40q46 -39 56 -134q4 -40 20 -28z" />
    <glyph glyph-name="uniE015" unicode="&#xe015;" horiz-adv-x="1835" 
d="M986 1159h-168v-562l382 -220l12 21q30 51 14 108t-66 87l-174 102v464zM918 1380q187 0 346 -92q160 -92 252 -252q92 -159 92 -346t-92 -346q-92 -160 -252 -252q-159 -92 -346 -92q-186 0 -346 92t-252 252q-92 159 -93 346q1 187 93 346q92 160 252 252t346 92z" />
    <glyph glyph-name="uniE016" unicode="&#xe016;" 
d="M1316 1044q-48 0 -82 -34t-33 -80q-1 -48 33 -82t82 -33q48 -1 80 33q34 34 34 82t-34 80q-32 34 -80 34zM1316 462q-48 0 -82 -34t-33 -80q-1 -48 33 -82t82 -33q48 -1 80 33q34 34 34 82t-34 80q-32 34 -80 34zM734 1044q-48 0 -82 -34t-33 -80q-1 -48 33 -82t82 -33
q48 -1 80 33q34 34 34 82t-34 80q-32 34 -80 34zM1024 753q-48 1 -80 -33q-34 -34 -34 -82t34 -80q34 -34 80 -34q48 0 82 34t33 80q1 48 -33 82t-82 33zM748 462q-48 0 -82 -34t-33 -80q-1 -48 33 -82t82 -33q48 -1 80 33q34 34 34 82t-34 80q-32 34 -80 34zM386 1277h1134
q59 0 101 -42t42 -101v-1134h-1134q-59 0 -101 42t-42 101v1134z" />
    <glyph glyph-name="uniE017" unicode="&#xe017;" 
d="M1131 1137v-293h292v139l300 -277l-300 -255v140h-293v-292h139l-277 -299l-254 299h139v292h-292v-139l-301 254l300 278v-139h293v292h-140l255 300l278 -300h-139z" />
    <glyph glyph-name="uniE018" unicode="&#xe018;" horiz-adv-x="2055" 
d="M1028 954q-108 0 -186 -77t-78 -187t77 -186q77 -77 187 -77q110 1 186 77t77 186q0 110 -77 187t-186 77zM902 1380h253l25 -153q53 -14 118 -49l128 92l178 -182l-91 -128q37 -66 50 -117l155 -27v-252l-155 -25q-13 -50 -50 -119l91 -128l-178 -178l-128 91
q-57 -31 -118 -49l-25 -156h-255l-25 154q-62 17 -119 48l-128 -89l-178 178l90 128q-32 59 -49 119l-154 26v254l154 24q16 59 49 119l-90 128l179 178l129 -91q63 35 117 49z" />
    <glyph glyph-name="uniE019" unicode="&#xe019;" 
d="M1583 790q69 0 118 -49t49 -118t-49 -117t-118 -49q-69 1 -118 49t-49 117t49 118t118 49zM1190 623q0 -69 -48 -117t-118 -49q-69 1 -118 49t-49 117t49 118t118 49q70 0 118 -49t48 -118zM631 623q0 -69 -49 -117t-118 -49q-69 1 -118 49t-49 117t49 118t118 49
t118 -49t49 -118z" />
    <glyph glyph-name="uniE020" unicode="&#xe020;" 
d="M259 1197h1393q58 -1 98 -41t40 -97v-64l-762 -388l-769 390v200zM1790 0h-1393q-57 0 -97 40t-41 98v667l771 -387l760 387v-805z" />
    <glyph glyph-name="uniE021" unicode="&#xe021;" 
d="M1225 1325q99 86 231 82t224 -87q92 -82 110 -200q29 -182 -125 -320q-5 -4 -92 -82q-87 -77 -749 -668q-96 -84 -226 -86t-226 81q-162 157 -104 359q21 72 54 110t56 58q22 20 52 46t44 39l459 408q151 134 286 52q63 -38 87 -103q24 -64 7 -132q-18 -68 -71 -115
l-449 -399q-97 109 -16 180q200 181 374 335q33 28 12 63q-20 35 -44 34q-25 0 -57 -28t-278 -248t-260 -235t-42 -43q-37 -39 -55 -96q-18 -58 21 -112q38 -54 93 -72t101 -4q79 25 723 616l214 196q37 40 41 98t-24 102t-62 62q-36 18 -74 16t-90 -7q-52 -6 -89 35
q-2 3 -34 30q-31 28 -22 35z" />
    <glyph glyph-name="uniE022" unicode="&#xe022;" 
d="M1418 204v347h204v-551h-1075q-53 0 -89 36t-36 89v426h204v-257q0 -38 26 -64t64 -26h702zM1119 846v-509h-75q-52 1 -88 37t-37 88v384h-268l384 416l352 -416h-268z" />
    <glyph glyph-name="uniE023" unicode="&#xe023;" 
d="M1049 1400h87v-536h306l-403 -477l-440 478h306v391q1 60 43 102t101 42zM334 634h235v-296q0 -44 30 -74t73 -30h807v399h235v-633h-1236q-60 0 -102 42t-42 101v491z" />
    <glyph glyph-name="uniE024" unicode="&#xe024;" 
d="M433 1171h197l177 -180h-194v-706q1 -43 31 -73t73 -31h705v194l180 -184v-190l-1025 -1q-60 0 -102 42t-42 101v1028zM837 508q0 60 43 101l317 317l-248 248h651v-650l-241 240l-419 -419l-60 61q-43 42 -43 102z" />
    <glyph glyph-name="uniE025" unicode="&#xe025;" 
d="M1022 -108q-70 0 -129 43q-58 43 -79 108h412q-22 -67 -78 -109t-126 -42zM466 848q0 150 75 278t203 204t276 78q112 -2 214 -48t176 -120t120 -177q44 -103 44 -215v-471l147 -235h-1402l147 235v471z" />
    <glyph glyph-name="uniE026" unicode="&#xe026;" 
d="M917 62l403 -85q-34 -61 -98 -91t-134 -16t-116 69q-47 54 -55 123zM1545 268l95 -261l-1372 289l193 200l97 460q30 146 130 256t240 159q140 48 287 20q145 -33 255 -134t156 -242t16 -287z" />
    <glyph glyph-name="uniE027" unicode="&#xe027;" 
d="M1279 1080l-439 -414l411 -439q35 -37 33 -89t-39 -89l-52 -49l-635 676l675 633l50 -52q36 -38 35 -90t-39 -87z" />
    <glyph glyph-name="uniE028" unicode="&#xe028;" 
d="M1539 1009q52 0 89 -37l51 -51l-656 -656l-654 655l51 52q36 38 88 38t89 -37l427 -426l426 425q37 37 89 37z" />
    <glyph glyph-name="uniE029" unicode="&#xe029;" 
d="M1024 1164q-99 0 -169 -70t-70 -169t70 -169t169 -70t169 70t70 169t-70 169t-169 70zM1024 394q28 0 88 -54t75 -62v-370l-164 162l-163 -161v369q16 8 76 62t88 54zM1521 925q0 -30 -63 -61q-63 -30 -71 -52t8 -58t29 -71q13 -34 2 -50q-11 -17 -50 -15t-72 8t-57 -8
q-17 -14 -31 -86t-38 -80q-22 -8 -77 43q-55 50 -75 50t-51 -26q-30 -26 -58 -49t-49 -17q-22 5 -36 79t-31 86t-93 4q-76 -9 -86 11q-11 16 2 50q13 35 29 71q17 36 11 52t-28 32t-46 26q-24 12 -44 28t-19 33q0 30 63 61q63 30 72 54q8 22 -23 90t-19 86t52 16
q39 -2 72 -8t57 8q17 12 31 86t38 80q24 7 78 -43t76 -50t76 50t78 43q24 -6 38 -80t31 -86t93 -4q76 9 86 -11q14 -19 -17 -87t-25 -84q6 -18 28 -34t46 -26q63 -30 63 -61z" />
    <glyph glyph-name="uniE030" unicode="&#xe030;" 
d="M1240 1042q-60 0 -101 -42q-42 -42 -42 -102t42 -101q41 -42 101 -42t102 42q42 41 42 101t-42 102t-102 42zM1237 1365q126 0 233 -62t169 -169t62 -233q0 -192 -136 -328t-328 -136q-98 0 -188 39v-148h-164v-164h-164v-164h-375l23 224l458 458q-55 104 -55 224
t62 228q62 107 170 169t233 62z" />
    <glyph glyph-name="uniE031" unicode="&#xe031;" 
d="M143 1457h1495l-4 -172h-1342l1 -977h-150v1149zM1294 284l-332 347l-53 -22l-350 -457l1186 1l-271 238zM410 1149h1495v-1149h-1495v1149z" />
    <glyph glyph-name="uniE032" unicode="&#xe032;" 
d="M1351 165l438 166v1096l-438 -167v-1095zM258 164l438 167v1096l-438 -167v-1096zM1911 1533v-1286l-622 -237l-533 213l-554 -211q-24 -8 -45 6t-21 40v1286l621 237l533 -213l555 211q24 9 45 -5t21 -41z" />
    <glyph glyph-name="uniE033" unicode="&#xe033;" 
d="M1351 1204q143 0 257 -100q54 -48 88 -123q33 -76 33 -168q0 -228 -200 -401q-78 -68 -288 -240t-217 -172l-503 414q-93 77 -147 179q-54 103 -55 197t21 159q39 119 141 187q101 68 217 68q191 0 326 -163q134 163 327 163z" />
    <glyph glyph-name="uniE040" unicode="&#xe040;" 
d="M1726 429h-1224q-60 0 -102 42t-42 101v29h1368v-172zM1726 774h-1368v172h1368v-172zM358 1119v172h1224q60 0 102 -42t42 -101v-29h-1368z" />
    <glyph glyph-name="uniE041" unicode="&#xe041;" 
d="M1503 524h-1145v243h1145v-243zM1058 0h-556q-60 0 -102 42t-42 101v100h700v-243zM358 1048v243h1224q60 0 102 -42t42 -102v-99h-1368z" />
    <glyph glyph-name="uniE042" unicode="&#xe042;" 
d="M340 877h1144v-173h-1144v173zM340 604h698v-172h-698v172zM340 244h1369v-244h-1225q-60 0 -102 42t-42 102v100zM340 1293h1225q60 0 102 -42t42 -102v-100h-1369v244z" />
    <glyph glyph-name="uniE043" unicode="&#xe043;" 
d="M1710 701h-1368v172h1368v-172zM340 604h698v-172h-698v172z" />
    <glyph glyph-name="article" unicode="&#xe100;" 
d="M1127 958h279v353h-279v-353zM640 706h766v100h-766v-100zM640 453h766v98h-766v-98zM640 201h766v101h-766v-101zM974 1058h-334v-100h334v100zM975 1311h-335v-100h335v100zM442 1508h1032q61 0 97 -33t36 -94v-1381h-1035q-60 0 -95 35t-35 94v1379z" />
    <glyph glyph-name="articleCheck" unicode="&#xe101;" 
d="M1367 954v350h-279v-350h279zM937 1205v100h-332v-100h332zM937 954v99h-332v-99h332zM1369 702v100h-764v-100h764zM406 1501h1017q59 0 101 -42t42 -101v-812l-250 -250l-155 154h208v100h-764v-100h330l-82 -82l-77 -66h-171v-100h402l-96 96l129 129l268 -267
l449 447q33 35 81 35t82 -35l47 -47l-401 -401v-159h-159l-99 -99l-99 99h-659q-60 0 -102 42t-42 101v1358z" />
    <glyph glyph-name="articleSearch" unicode="&#xe102;" 
d="M1369 950v350h-279v-350h279zM939 1201v100h-332v-100h332zM939 950v99h-332v-99h332zM1381 698q152 0 252 -101t114 -229t-57 -235l-1 -1l245 -246l-41 -41q-29 -29 -70 -29t-69 29l-176 176q-86 -58 -199 -58q-152 0 -260 108q-107 108 -107 260t108 260
q109 107 261 107zM1380 542q-85 0 -149 -62q-5 -3 -8 -8q-56 -63 -54 -147q1 -85 63 -145t148 -60t148 62t62 150t-62 148q-63 62 -148 62zM607 546v-100h320q-19 -76 -13 -148h-307v-100h324q33 -114 117 -198l5 -4h-501q-60 0 -102 42t-42 101v1358h1017q59 0 101 -42
t42 -101v-596q-89 40 -188 40h-773v-100h484q-82 -64 -126 -152h-358z" />
    <glyph glyph-name="uniE300" unicode="&#xe300;" 
d="M1115 906l-91 254l-90 -254l-244 116l116 -244l-254 -90l254 -91l-116 -244l244 116l90 -254l91 254l243 -116l-115 244l254 91l-254 90l115 244zM1048 1375q164 0 321 -92q158 -93 250 -251t92 -344t-92 -346q-92 -158 -250 -250q-157 -92 -321 -92t-291 54t-219 147
q-92 91 -146 219t-55 268q1 140 55 267t146 219t219 146t291 55z" />
    <glyph glyph-name="uniE301" unicode="&#xe301;" 
d="M1026 1103q-52 0 -89 -37t-37 -89t37 -89t89 -37t89 37t37 89t-37 89t-89 37zM1092 90q50 -12 74 -42t25 -64q2 -34 -28 -74t-70 -84q-40 -42 -52 -75q-11 33 -51 75t-70 84q-30 40 -28 74t26 62q24 30 72 42q-33 -18 -35 -48q-1 -30 39 -58t47 -51q7 21 30 37t41 32
t15 44q-2 28 -35 46zM1027 1441q98 -47 166 -124q123 -139 144 -347t-31 -442l137 -348l-222 72q-27 -69 -49 -113h-296q-23 46 -48 111l-223 -68l135 365q-108 513 124 773q67 75 163 121z" />
    <glyph glyph-name="uniE500" unicode="&#xe500;" 
d="M572 1081q-54 0 -53 19v99q0 19 28 33t67 14l189 17l69 78h296l72 -80l195 -15q39 0 67 -14t27 -33v-99q-1 -19 -53 -19h-904zM1324 -5h-599q-27 -1 -47 19t-20 47l-115 883h963l-114 -883q0 -26 -20 -46t-48 -20z" />
    <glyph glyph-name="uniE501" unicode="&#xe501;" 
d="M1218 0h-490q-46 0 -60 46q-8 27 -11 51q-2 25 -3 30l821 820h34l-116 -882q-8 -49 -51 -59q-42 -10 -80 -8q-39 2 -44 2zM524 1101v99q0 18 28 32t67 14l188 16l68 78h298l70 -78l165 -12l217 218l105 -103l-1361 -1403l-125 125l367 367l-65 491h557l137 137h-621
l-43 -1q-52 0 -52 20z" />
    <glyph glyph-name="uniE502" unicode="&#xe502;" 
d="M1469 569v244h-892v-244h892zM1024 1380q187 0 346 -92q160 -92 252 -252q92 -159 92 -346t-92 -346q-92 -160 -252 -252q-159 -92 -346 -92t-346 92q-160 92 -252 252q-92 159 -92 346t92 346q92 160 252 252q159 92 346 92z" />
    <glyph glyph-name="uniE503" unicode="&#xe503;" 
d="M1469 566v245h-86l234 233q103 -172 95 -378t-115 -361q-108 -155 -266 -233q-159 -78 -335 -72t-327 96l470 470h330zM576 810v-244h179l244 244h-423zM1433 1242l275 275l121 -121l-1435 -1437l-120 124l192 195q-143 192 -133 438t168 427q115 131 279 191t338 35
q174 -24 315 -127z" />
    <glyph glyph-name="uniE504" unicode="&#xe504;" 
d="M633 52q-1 -31 -29 -43t-56 -9l-28 3v1340q142 13 366 -59q88 -28 170 -68t158 -49q188 -22 314 104v-714q-46 -77 -150 -113q-139 -49 -320 55q-268 176 -425 124v-571z" />
    <glyph glyph-name="uniE505" unicode="&#xe505;" 
d="M1106 554l564 567v-569q-46 -77 -150 -112q-140 -47 -318 57q-47 31 -96 57zM778 50q0 -30 -28 -42t-56 -10l-28 3v115l112 111v-177zM1331 1166l311 309l119 -119l-1388 -1388l-119 120l412 415v837q190 11 442 -97q146 -62 223 -77z" />
    <glyph glyph-name="uniE506" unicode="&#xe506;" 
d="M1345 685l-502 291v-581zM1025 1380q187 0 346 -92t251 -252q92 -159 93 -346q-1 -187 -93 -346q-92 -160 -251 -252t-346 -92t-347 92t-252 252q-92 159 -92 346t92 346q92 160 252 252t347 92z" />
    <glyph glyph-name="uniE507" unicode="&#xe507;" 
d="M1281 432v517h-516v-517h516zM1024 1380q187 0 346 -92q160 -92 252 -252q92 -159 92 -346t-92 -346q-92 -160 -252 -252q-159 -92 -346 -92t-346 92q-160 92 -252 252q-92 159 -92 346t92 346q92 160 252 252q159 92 346 92z" />
    <glyph glyph-name="uniE508" unicode="&#xe508;" 
d="M1196 950q0 200 -172 200t-173 -199v-177h345v176zM1408 953v-179h175v-774h-975q-59 0 -101 42t-42 102v630h175v178q0 117 49 215t137 155t198 57q164 1 274 -123t110 -303z" />
    <glyph glyph-name="uniE509" unicode="&#xe509;" 
d="M1408 1014h-212q0 94 -43 146t-131 52q-171 0 -171 -199v-239h732v-774h-975q-59 0 -101 42t-42 102v630h175v240q0 180 110 304t274 124t274 -124t110 -304z" />
    <glyph glyph-name="uniE600" unicode="&#xe600;" 
d="M1024 1376q94 0 161 -50q131 -96 131 -280q0 -183 -86 -302t-206 -119t-206 119t-86 302q0 184 130 280q68 50 162 50zM1657 717v-717h-1122q-59 0 -101 42t-42 102v573h322q41 -85 130 -139t175 -54q85 0 177 52t139 141h322z" />
    <glyph glyph-name="uniE601" unicode="&#xe601;" 
d="M1215 902q-36 0 -61 -25t-25 -61t25 -60q25 -26 61 -26t61 25t25 61t-25 61t-61 25zM833 902q-36 0 -61 -26t-25 -62t25 -60t61 -24t61 25t25 61t-25 60q-25 26 -61 26zM702 550q-22 0 -38 -16q-15 -16 -15 -38t16 -38q85 -86 219 -118t268 -4t226 107q20 17 26 41
t-11 42t-39 20t-38 -13q-68 -65 -178 -89t-220 0t-178 91q-16 15 -38 15zM554 1282h1111l-1 -1120q0 -22 -12 -54q-38 -107 -157 -107l-1110 -1l-2 1119q0 57 42 110t129 53z" />
    <glyph glyph-name="uniE602" unicode="&#xe602;" 
d="M1299 742q75 0 129 44t53 106q-65 -64 -181 -64t-183 64q-1 -62 53 -106t129 -44zM770 742q76 0 128 44t52 106q-66 -64 -180 -64t-182 64q0 -62 54 -106t128 -44zM789 500q-17 12 -39 7t-34 -23t-8 -40t24 -34q128 -81 292 -83t295 75q18 10 24 32t-3 41q-10 19 -32 25
t-41 -6q-102 -62 -240 -60t-238 66zM554 1282h1111v-1119q0 -57 -42 -110t-129 -53h-1111v1119q0 57 42 110t129 53z" />
    <glyph glyph-name="uniE700" unicode="&#xe700;" 
d="M1600 457l-181 540l-183 -540h364zM508 1413h182v-240h481l-59 -180h-422q53 -206 187 -354q30 -33 84 -87l-62 -180q-80 80 -95 96q-14 17 -50 55t-50 58t-48 64q-33 44 -59 113q-83 -266 -275 -422q-76 -62 -177 -117l-23 69q-16 48 1 94t60 73q78 62 125 108
q46 46 82 105t56 111t55 154l7 60h-425v180h425v240zM1437 1173q47 0 84 -24t52 -67l391 -1161h-182l-122 358h-486l-121 -358h-182l425 1252h141z" />
    <glyph glyph-name="uniE701" unicode="&#xe701;" 
d="M1666 676v150h-150v-150h150zM1441 676v150h-150v-150h150zM1666 414v150h-150v-150h150zM1216 676v150h-150v-150h150zM1441 414v150h-150v-150h150zM1666 152v150h-150v-150h150zM991 826h-150v-148l150 -2v150zM1216 414v150h-150v-150h150zM766 678v148h-150v-148
h150zM991 414v150h-150v-150h150zM1441 152v150h-825v-150h825zM541 677v149h-149v-149h149zM766 414v150h-150v-150h150zM542 414v150h-150v-150h150zM542 152v150h-149v-150h149zM240 977h1433q59 -1 101 -43t43 -101v-833h-1433q-60 0 -102 42t-42 102v833z" />
    <glyph glyph-name="uniE800" unicode="&#xe800;" 
d="M366 361q26 -18 78 -70l1004 908q-27 48 -81 66zM258 402l1113 998q125 -21 221 -124t103 -230l-1114 -1002l-412 -44z" />
    <glyph glyph-name="uniE801" unicode="&#xe801;" 
d="M1161 1502q115 0 233 -50t166 -139q-353 -9 -564 -267l113 -171l-573 22l42 579l149 -168q218 194 434 194zM358 359q38 -25 77 -69l546 492l319 -10l-174 259q94 95 222 147t269 60q66 -137 71 -191l-1115 -1004l-412 -45l89 402l210 189t228 205l147 -6z" />
    <glyph glyph-name="uniE802" unicode="&#xe802;" 
d="M358 359q38 -25 77 -69l546 492l319 -10l-174 259q94 95 222 147t269 60q66 -137 71 -191l-1115 -1004l-412 -45l89 402l210 189t228 205l147 -6z" />
    <glyph glyph-name="uniE803" unicode="&#xe803;" 
d="M1161 1502q115 0 233 -50t166 -139q-353 -9 -564 -267l113 -171l-573 22l42 579l149 -168q218 194 434 194z" />
    <glyph glyph-name="uniE804" unicode="&#xe804;" 
d="M1468 1302q-88 0 -88 -101l1 -89h175l-1 89q1 101 -87 101zM1468 1419q83 0 139 -63t56 -154v-90h88v-392h-566v392h89v91q0 91 56 153t138 63zM1088 622h138l-644 -580l-413 -45l88 403l831 743v-133l-722 -652q26 -18 78 -70l644 582v-248z" />
    <glyph glyph-name="uniE805" unicode="&#xe805;" 
d="M1088 622h138l-644 -580l-413 -45l88 403l831 743v-133l-722 -652q26 -18 78 -70l644 582v-248z" />
    <glyph glyph-name="uniE806" unicode="&#xe806;" 
d="M1468 1302q-88 0 -88 -101l1 -89h175l-1 89q1 101 -87 101zM1468 1419q83 0 139 -63t56 -154v-90h88v-392h-566v392h89v91q0 91 56 153t138 63z" />
    <glyph glyph-name="uniE810" unicode="&#xe810;" 
d="M294 1277h1581v-1116q-2 -17 -4 -24q-2 -8 -5 -21q-3 -14 -9 -26q-7 -12 -15 -26q-41 -64 -130 -64h-1673l255 283v994z" />
    <glyph glyph-name="uniE811" unicode="&#xe811;" 
d="M679 938h1066v-730l186 -208h-1134q-82 0 -109 74q-9 25 -9 44v820zM230 1337h1068v-305h-714v-633h-541l187 209v729z" />
    <glyph glyph-name="uniE812" unicode="&#xe812;" 
d="M1171 727v267h-172v-267h-269v-165h269v-279h172v279h270v165h-270zM294 1277h1581v-1116q-2 -17 -4 -24q-2 -8 -5 -21q-3 -14 -9 -26q-7 -12 -15 -26q-41 -64 -130 -64h-1673l255 283v994z" />
    <glyph glyph-name="uniE813" unicode="&#xe813;" 
d="M1289 1034q-38 0 -65 -27t-27 -65t27 -64t65 -27q38 1 65 27t27 64t-27 65t-65 27zM908 1034q-38 0 -64 -27t-27 -65q1 -38 27 -64t64 -27q38 1 65 27t27 64t-27 65t-65 27zM1109 625q-112 1 -236 27t-192 52l-68 26q0 -132 65 -244t177 -177q111 -65 227 -65t206 38
t155 104q65 65 103 155t39 189q-236 -105 -476 -105zM294 1278h1581v-1117q-19 -152 -148 -161h-1688l255 285v993z" />
    <glyph glyph-name="uniE820" unicode="&#xe820;" 
d="M678 858q161 134 339 100q122 -22 204 -111q27 -29 25 -71t-33 -70q-62 -56 -71 -62q-17 70 -75 111q-57 41 -129 39t-125 -52l-238 -221q-66 -65 -65 -151t59 -144q101 -103 247 -14q38 23 65 49q28 27 49 29t78 -15t132 -8q-16 -15 -64 -61t-70 -66q-86 -76 -148 -104
q-167 -76 -321 4q-128 67 -175 209q-48 142 12 277q30 69 88 122q20 18 92 92t124 118zM1272 1320q47 12 110 7q63 -4 130 -39t110 -88q91 -112 85 -263q-5 -151 -119 -257q-26 -23 -94 -93q-140 -143 -240 -191q-100 -49 -222 -26t-204 112q-26 30 -24 71t32 69
q63 57 72 62q17 -70 75 -111q57 -41 129 -38t124 52l238 220q66 66 66 151q0 86 -49 134q-85 85 -170 61t-161 -94q-33 -31 -83 -17q-51 14 -79 20t-88 -1q16 14 64 61q48 46 70 66t68 55t80 50t80 27z" />
    <glyph glyph-name="uniE830" unicode="&#xe830;" 
d="M1760 1116q0 -45 -26 -82t-68 -53q-104 -39 -177 -125t-101 -195h372v-514q0 -61 -44 -105t-106 -45h-513v355q1 126 15 226t57 210t122 202t189 152t280 87v-113zM924 1116q0 -44 -27 -82t-70 -53q-104 -39 -176 -125t-100 -195h372v-514q0 -62 -44 -106t-105 -44h-514
v355q2 126 16 226t56 210q43 110 122 201q79 92 189 152t281 88v-113z" />
    <glyph glyph-name="uniE831" unicode="&#xe831;" 
d="M1522 1515h166v-269h279v-166h-279v-280h-166v280h-269v166h269v269zM1420 980v-122q-73 -82 -103 -196h372v-517q1 -62 -43 -106t-106 -44h-514v342q2 202 42 359t146 284h206zM851 1116q0 -45 -26 -82t-68 -53q-105 -41 -177 -125t-100 -194h371v-514q0 -62 -44 -108
t-105 -45h-513v359q3 306 99 496q95 190 283 292q109 60 280 88v-114z" />
    <glyph glyph-name="uniE840" unicode="&#xe840;" 
d="M1441 347v655h-872v-655h872zM660 438l218 291l200 -200l109 91l163 -182h-690zM160 1294h1727v-1294h-1727v1294z" />
    <glyph glyph-name="uniE841" unicode="&#xe841;" 
d="M1854 1184q0 101 -87 101t-87 -101v-89h174v89zM1767 1401q63 1 113 -39q88 -70 82 -238v-29h87v-390h-564v390h84q-1 113 17 170t68 97t113 39zM1591 167v1l-301 264l-200 -118l-368 385l-60 -24l-389 -508h1318zM108 -2v1276h1379q-15 -37 -16 -77h-88v-593h386v-606
h-1661z" />
    <glyph glyph-name="uniE842" unicode="&#xe842;" 
d="M1591 167v1l-301 264l-200 -118l-368 385l-60 -24l-389 -508h1318zM108 -2v1276h1379q-15 -37 -16 -77h-88v-593h386v-606h-1661z" />
    <glyph glyph-name="uniE843" unicode="&#xe843;" 
d="M1854 1184q0 101 -87 101t-87 -101v-89h174v89zM1767 1401q63 1 113 -39q88 -70 82 -238v-29h87v-390h-564v390h84q-1 113 17 170t68 97t113 39z" />
    <glyph glyph-name="uniE844" unicode="&#xe844;" 
d="M1600 1546h171v-268h271v-164h-271v-279h-171v279h-269v164h269v268zM1085 315l-368 386l-59 -25l-389 -508l1317 1l-301 265zM104 0v1276h1121v-267h269v-269h270v-740h-1660z" />
    <glyph glyph-name="uniE845" unicode="&#xe845;" 
d="M1085 315l-368 386l-59 -25l-389 -508l1317 1l-301 265zM104 0v1276h1121v-267h269v-269h270v-740h-1660z" />
    <glyph glyph-name="uniE846" unicode="&#xe846;" 
d="M1600 1546h171v-268h271v-164h-271v-279h-171v279h-269v164h269v268z" />
    <glyph glyph-name="uniE847" unicode="&#xe847;" 
d="M1336 1087v487h-650v-487h650zM753 1154l163 217l149 -149l81 68l122 -136h-515zM381 1792h1286v-2048h-1286v2048z" />
    <glyph glyph-name="uniE848" unicode="&#xe848;" 
d="M1418 890h-460l-107 108h-271v-567l82 -82h756v541zM1887 1294v-1294h-1727v1294h1727z" />
    <glyph glyph-name="uniE849" unicode="&#xe849;" 
d="M694 1571v-422l61 -61h563v403h-342l-81 80h-201zM381 1792h1286v-2048h-1286v2048z" />
    <glyph glyph-name="uniE850" unicode="&#xe850;" 
d="M1507 1176v248h159v-248h193q25 0 42 -17t17 -42v-94h-252v-259h-160v259h-248v153h249zM131 193v983h1032v-155h-880v-724q-1 -49 35 -85t86 -36h1102v463h156v-639h-1338q-80 0 -136 57t-57 136z" />
    <glyph glyph-name="uniE851" unicode="&#xe851;" 
d="M1023 1237q-143 -1 -243 -101t-100 -242t100 -243t244 -101q142 0 242 101t101 243q0 142 -101 242t-243 101zM1187 1507q163 -43 285 -165t164 -284q42 -164 0 -326q-44 -162 -166 -284l-448 -448l-447 445q-122 121 -165 285t1 326q44 163 166 285q123 121 285 165
t325 1z" />
    <glyph glyph-name="uniE852" unicode="&#xe852;" 
d="M1557 1689h127v-198h153q19 1 33 -13t14 -34v-75h-200v-206h-128v206h-197v122h198v198zM1026 1237q-142 -1 -242 -101t-101 -242q1 -142 101 -243t242 -101t243 101t101 243t-101 242t-243 101zM1269 1280h198v-206h167q49 -160 7 -330t-168 -296l-448 -448l-447 445
q-122 121 -165 285t1 326q44 163 174 293t320 167t361 -36v-200z" />
    <glyph glyph-name="uniE853" unicode="&#xe853;" 
d="M1026 1237q-142 -1 -242 -101t-101 -242q1 -142 101 -243t242 -101t243 101t101 243t-101 242t-243 101zM1269 1280h198v-206h167q49 -160 7 -330t-168 -296l-448 -448l-447 445q-122 121 -165 285t1 326q44 163 174 293t320 167t361 -36v-200z" />
    <glyph glyph-name="uniE854" unicode="&#xe854;" 
d="M1557 1689h127v-198h153q19 1 33 -13t14 -34v-75h-200v-206h-128v206h-197v122h198v198z" />
    <glyph glyph-name="uniE870" unicode="&#xe870;" 
d="M639 706h766v100h-766v-100zM639 453h766v98h-766v-98zM639 201h766v101h-766v-101zM974 1058h-335v-100h335v100zM974 1311h-335v-100h335v100zM1406 1508h67q61 0 97 -33t36 -94v-1381h-1035q-60 0 -95 35t-35 94v1379h687v-547l137 173l141 -173v547z" />
    <glyph glyph-name="uniE871" unicode="&#xe871;" 
d="M1667 319v918h-358q-59 -1 -101 -43t-42 -101v-779q23 5 42 5h459zM1208 1438h661v-1321h-661q-73 -1 -126 -51t-58 -122q-4 72 -58 122t-127 51h-660v1321h660q73 0 127 -50t58 -122q5 72 58 122t126 50z" />
    <glyph glyph-name="uniE872" unicode="&#xe872;" 
d="M1404 1205v100h-494v-100h494zM1252 952v100h-342v-100h342zM443 1506h151v-1506h-151v1506zM707 1506h899v-1329q0 -65 -61 -121t-129 -56h-709v1506z" />
    <glyph glyph-name="uniE873" unicode="&#xe873;" 
d="M1002 1137q-32 1 -54 -21t-21 -54t23 -54t53 -22t53 22t22 53t-22 53t-54 23zM750 1137q-32 1 -54 -21t-21 -54t23 -54t53 -22t53 22t22 53t-22 53t-54 23zM497 1137q-31 1 -53 -21t-22 -54t22 -54t54 -22t54 22t21 53t-23 53t-53 23zM1628 148v736h-1206v-646
q0 -38 26 -64t64 -26h1116zM272 1239h1505v-1239h-1361q-60 0 -102 42t-42 102v1095z" />
    <glyph glyph-name="uniE874" unicode="&#xe874;" 
d="M1611 858v175h-902v-175h902zM1611 203v504h-309v-504h309zM1151 607v100h-441v-100h441zM1151 405v100h-441v-100h441zM1151 202v100h-441v-100h441zM307 311q0 -132 100 -132q49 -1 75 35t26 97v921h1158q60 0 102 -42t42 -102v-1088h-1403q-127 0 -189 74t-62 233v510
h248v-152h-97v-354z" />
    <glyph glyph-name="uniE875" unicode="&#xe875;" 
d="M1718 1237q-36 25 -82 25t-81 -27q-199 -149 -268 -379q-38 -123 -27 -213q176 51 322 163q147 113 191 285q9 41 -6 81t-49 65zM26 151h1995v-150h-1995v150zM293 715l171 171l102 -102l-171 -172l172 -172l-102 -102l-173 172l-165 -166l-101 102l164 166l-165 166
l102 102zM2023 362v-56l-147 -1q7 83 -7 92q-54 35 -232 -29q-38 -14 -51 -18q-108 -35 -230 -7t-189 125q-163 -29 -447 -20v150q263 -6 393 14q-21 136 26 292t145 284q98 130 222 194q151 80 306 -36q84 -62 110 -178q12 -54 -8 -134t-79 -168q-58 -89 -137 -156
q-155 -132 -361 -199q104 -61 235 -7q65 26 134 40h1q131 22 199 -1q87 -30 106 -100q11 -42 11 -81z" />
    <glyph glyph-name="uniE876" unicode="&#xe876;" 
d="M202 1310h-80v45q93 3 93 60h55v-339h-68v234zM340 749q0 -43 -18 -67t-55 -51l-27 -19q-40 -28 -51 -45h151v-60h-236q0 35 15 69t65 70t68 54q18 20 19 44q-1 24 -13 38q-12 15 -34 15q-50 0 -50 -65h-66q3 123 112 123q54 0 88 -31q32 -32 32 -75zM114 176
q7 106 106 106q47 0 77 -24q29 -26 29 -61t-14 -51t-26 -20q8 0 29 -20t21 -60t-28 -72t-93 -31q-102 0 -107 109h64q0 -57 49 -57q18 0 33 13q14 13 14 38q0 50 -73 50v46q33 0 49 8t16 37q0 42 -43 42t-43 -53h-60zM1944 226v-226h-1435v226h1435zM1944 794v-226h-1435
v226h1435zM1827 1359q49 -1 83 -35t34 -83v-108h-1435v226h1318z" />
    <glyph glyph-name="uniE877" unicode="&#xe877;" 
d="M520 787h1414v-223h-1414v223zM243 1369q54 0 92 -38q38 -37 38 -91t-38 -92t-92 -38t-92 38t-38 92t38 91q38 38 92 38zM520 223h1414v-223h-1414v223zM243 805q54 0 92 -38q38 -37 38 -91t-38 -92t-92 -38t-92 38t-38 92t38 91q38 38 92 38zM243 241q54 0 92 -38
q38 -37 38 -91t-38 -92t-92 -38t-92 38t-38 92t38 91q38 38 92 38zM520 1351h1298q48 0 82 -34t34 -82v-107h-1414v223z" />
    <glyph glyph-name="uniE878" unicode="&#xe878;" 
d="M286 664l313 290v-555zM805 585h583v-185h-583v185zM805 954h957v-187h-957v187zM284 186h1480v-186h-1382q-42 0 -70 28t-28 69v89zM284 1353h1381q41 -1 69 -29t28 -68v-90h-1478v187z" />
    <glyph glyph-name="uniE879" unicode="&#xe879;" 
d="M804 954h958v-186h-958v186zM804 586h584v-186h-584v186zM284 399v555l314 -265zM283 186h1481v-186h-1383q-40 0 -69 28t-29 69v89zM283 1354h1381q40 0 69 -28t29 -69v-90h-1479v187z" />
    <glyph glyph-name="uniE900" unicode="&#xe900;" 
d="M1653 945l105 57l78 -145l142 77l58 -108l-144 -77l76 -141l-106 -58l-76 142l-143 -74l-58 106l144 77zM1279 867l63 155q121 -52 209 -77l-47 -147l-4 -14zM965 1004l66 156q149 -62 211 -94l-69 -156zM590 1358q64 52 148 45q84 -8 136 -72q54 -63 46 -147t-72 -137
t-148 -45t-136 72t-45 148t71 136zM413 1119q-100 0 -170 -50l-96 141q116 76 266 79v-170zM44 1062l156 -69q-33 -84 -5 -157l-159 -60q-54 148 8 286zM398 596l-115 -125q-131 126 -167 168l125 113q102 -107 157 -156zM467 520q93 76 211 66t194 -104q76 -92 66 -210
q-11 -118 -103 -194q-93 -75 -211 -66q-118 10 -194 102t-66 210q10 120 103 196z" />
    <glyph glyph-name="uniE901" unicode="&#xe901;" 
d="M1155 351q-55 -55 -135 -57t-138 56t-57 139q1 80 57 135q56 54 136 56t138 -56t56 -138t-57 -135zM1573 491q0 -165 -81 -297t-219 -202q-138 -72 -298 -59q-203 16 -347 161t-159 338q-14 193 83 346q55 87 91 121q39 -35 70 -67t31 -35l38 -38l37 37l36 -140l-141 36
l37 37l-33 33q-22 -24 -59 -94q-37 -71 -43 -156h45v53l126 -74l-126 -74v52h-46q4 -143 100 -253l36 37l-37 37l141 36l-36 -141l-37 37l-37 -37q107 -99 253 -108v53h-52l74 125l74 -125h-53v-53q146 7 255 107l-38 38l-37 -37l-36 141l141 -36l-37 -37l37 -38
q97 109 101 254h-49v-52l-125 74l125 74v-53h48q-11 143 -107 247l-30 -30l37 -37l-141 -36l36 140l37 -37l30 30q-57 49 -124 74l-22 10q-21 10 -50 23t-41 20q-86 50 -128 177l-10 52q0 2 -58 -16t-58 -17q25 58 153 271l44 75l183 -346q-7 3 -19 7l-38 13q-58 20 -56 13
q13 -54 47 -85q26 -28 115 -62q155 -62 251 -202t96 -305z" />
    <glyph glyph-name="uniE902" unicode="&#xe902;" 
d="M1966 1184q0 -22 -9 -31q-95 -10 -150 -107q-13 -23 -32 -64l-434 -940q-13 -22 -21 -32t-22 -10q-30 0 -43 42l-241 516l-266 -518q-18 -39 -51 -39t-49 41l-402 943q-45 106 -71 135t-95 33q-9 9 -10 31t8 30q49 -2 195 -2t202 2q9 -8 9 -30t-9 -31q-85 -9 -99 -39
t24 -109l337 -770h8l208 412l-159 337q-48 102 -74 130t-82 38q-9 8 -10 30t8 31q40 -1 166 -1t166 1q9 -9 9 -31t-9 -30q-56 -9 -58 -39t38 -109l94 -181l91 176q42 79 44 105q3 26 -11 34t-44 13q-6 9 -5 31t8 31q37 -1 141 -1t139 1q9 -9 9 -31t-9 -30q-65 -10 -103 -50
t-79 -119l-124 -261l236 -484h8l349 758q37 75 22 113t-101 44q-9 9 -9 31t9 30q52 -2 176 -2t168 2q9 -8 9 -30z" />
    <glyph glyph-name="uniE903" unicode="&#xe903;" 
d="M1132 599q0 -106 86 -106q46 0 69 52l75 -38q-56 -94 -148 -94t-140 50t-49 136q-1 87 49 137t127 50q111 0 159 -87l-80 -42q-21 48 -67 48q-81 0 -81 -106zM1021 1091q-131 -1 -245 -67t-180 -180q-68 -114 -68 -244q0 -131 68 -244q68 -114 181 -180q114 -66 241 -66
q128 0 240 61t178 161t74 225q18 231 -133 382q-152 152 -356 152zM786 599q0 -106 86 -106q46 0 69 52l74 -38q-52 -94 -158 -94q-81 0 -130 49t-49 136q0 88 50 138t126 50q110 0 160 -87l-81 -42q-21 48 -66 48q-81 0 -81 -106zM1020 1200q121 0 232 -48t192 -127
q80 -79 128 -191t48 -254t-81 -280t-219 -219t-300 -81q-161 0 -299 82q-137 82 -219 220t-82 278t48 251t129 192t191 129t232 48z" />
    <glyph glyph-name="newGlyph" 
d="M1378 -5h-765v-101h765v101zM1378 243h-765v-97h765v97zM1378 499h-765v-100h765v100zM947 751h-334v-100h334v100zM1380 1004h-280v-353h280v353zM947 1004h-334v-100l334 -1v101zM415 1200h1031q62 0 98 -33t36 -94v-1381h-1035q-59 0 -95 35t-35 94v1379z" />
  </font>
</defs>
</svg>
