<?xml version="1.0" encoding="UTF-8" standalone="no"?>
<!-- Created with Inkscape (http://www.inkscape.org/) -->

<svg
   xmlns:dc="http://purl.org/dc/elements/1.1/"
   xmlns:cc="http://creativecommons.org/ns#"
   xmlns:rdf="http://www.w3.org/1999/02/22-rdf-syntax-ns#"
   xmlns:svg="http://www.w3.org/2000/svg"
   xmlns="http://www.w3.org/2000/svg"
   xmlns:sodipodi="http://sodipodi.sourceforge.net/DTD/sodipodi-0.dtd"
   xmlns:inkscape="http://www.inkscape.org/namespaces/inkscape"
   version="1.1"
   width="32"
   height="31.999998"
   viewBox="0 0 32 31.999998"
   id="Layer_1"
   xml:space="preserve"
   inkscape:version="0.48.2 r9819"
   sodipodi:docname="cog.svg"
   inkscape:export-filename="/Users/pau/repos/prototype-uls/images/cog.png"
   inkscape:export-xdpi="39.380001"
   inkscape:export-ydpi="39.380001"><sodipodi:namedview
   pagecolor="#ffffff"
   bordercolor="#666666"
   borderopacity="1"
   objecttolerance="10"
   gridtolerance="10"
   guidetolerance="10"
   inkscape:pageopacity="0"
   inkscape:pageshadow="2"
   inkscape:window-width="1124"
   inkscape:window-height="705"
   id="namedview82"
   showgrid="false"
   inkscape:zoom="7.3750004"
   inkscape:cx="3.9999979"
   inkscape:cy="9.5593184"
   inkscape:window-x="89"
   inkscape:window-y="22"
   inkscape:window-maximized="0"
   inkscape:current-layer="Layer_1"
   fit-margin-top="0"
   fit-margin-left="0"
   fit-margin-right="0"
   fit-margin-bottom="0" /><metadata
   id="metadata7"><rdf:RDF><cc:Work
       rdf:about=""><dc:format>image/svg+xml</dc:format><dc:type
         rdf:resource="http://purl.org/dc/dcmitype/StillImage" /><dc:title></dc:title></cc:Work></rdf:RDF></metadata><defs
   id="defs5"><marker
     refX="0"
     refY="0"
     orient="auto"
     id="Arrow2Mend-5"
     style="overflow:visible"><path
       d="M 8.7185878,4.0337352 -2.2072895,0.01601326 8.7185884,-4.0017078 c -1.7454984,2.3720609 -1.7354408,5.6174519 -6e-7,8.035443 z"
       transform="scale(-0.6,-0.6)"
       id="path45132-1"
       style="font-size:12px;fill-rule:evenodd;stroke-width:0.625;stroke-linejoin:round"
       inkscape:connector-curvature="0" /></marker><marker
     refX="0"
     refY="0"
     orient="auto"
     id="DotM-00"
     style="overflow:visible"><path
       d="m -2.5,-1 c 0,2.76 -2.24,5 -5,5 -2.76,0 -5,-2.24 -5,-5 0,-2.76 2.24,-5 5,-5 2.76,0 5,2.24 5,5 z"
       transform="matrix(0.4,0,0,0.4,2.96,0.4)"
       id="path14329-2"
       style="fill-rule:evenodd;stroke:#000000;stroke-width:1pt;marker-start:none;marker-end:none"
       inkscape:connector-curvature="0" /></marker><marker
     refX="0"
     refY="0"
     orient="auto"
     id="Arrow2Mend-07"
     style="overflow:visible"><path
       d="M 8.7185878,4.0337352 -2.2072895,0.01601326 8.7185884,-4.0017078 c -1.7454984,2.3720609 -1.7354408,5.6174519 -6e-7,8.035443 z"
       transform="scale(-0.6,-0.6)"
       id="path45132-31"
       style="font-size:12px;fill-rule:evenodd;stroke-width:0.625;stroke-linejoin:round"
       inkscape:connector-curvature="0" /></marker><marker
     refX="0"
     refY="0"
     orient="auto"
     id="DotM-0"
     style="overflow:visible"><path
       d="m -2.5,-1 c 0,2.76 -2.24,5 -5,5 -2.76,0 -5,-2.24 -5,-5 0,-2.76 2.24,-5 5,-5 2.76,0 5,2.24 5,5 z"
       transform="matrix(0.4,0,0,0.4,2.96,0.4)"
       id="path14329-94"
       style="fill-rule:evenodd;stroke:#000000;stroke-width:1pt;marker-start:none;marker-end:none"
       inkscape:connector-curvature="0" /></marker><marker
     refX="0"
     refY="0"
     orient="auto"
     id="Arrow2Mend-6"
     style="overflow:visible"><path
       d="M 8.7185878,4.0337352 -2.2072895,0.01601326 8.7185884,-4.0017078 c -1.7454984,2.3720609 -1.7354408,5.6174519 -6e-7,8.035443 z"
       transform="scale(-0.6,-0.6)"
       id="path45132-8"
       style="font-size:12px;fill-rule:evenodd;stroke-width:0.625;stroke-linejoin:round"
       inkscape:connector-curvature="0" /></marker><marker
     refX="0"
     refY="0"
     orient="auto"
     id="DotM-8"
     style="overflow:visible"><path
       d="m -2.5,-1 c 0,2.76 -2.24,5 -5,5 -2.76,0 -5,-2.24 -5,-5 0,-2.76 2.24,-5 5,-5 2.76,0 5,2.24 5,5 z"
       transform="matrix(0.4,0,0,0.4,2.96,0.4)"
       id="path14329-91"
       style="fill-rule:evenodd;stroke:#000000;stroke-width:1pt;marker-start:none;marker-end:none"
       inkscape:connector-curvature="0" /></marker><clipPath
     id="clipPath3169-2"><rect
       width="748.77557"
       height="428.80975"
       x="48.992397"
       y="105.34417"
       id="rect3171-7"
       style="fill:#f5f5f4;fill-opacity:1;stroke:#888a85;stroke-width:2;stroke-miterlimit:4;stroke-opacity:1;stroke-dasharray:none;stroke-dashoffset:0" /></clipPath><clipPath
     id="clipPath22-7"><path
       d="M 0,792 1224,792 1224,0 0,0 0,792 z"
       id="path24-2"
       inkscape:connector-curvature="0" /></clipPath><clipPath
     id="clipPath6483-7"><rect
       width="548"
       height="280"
       x="67.578148"
       y="187.65627"
       id="rect6485-5"
       style="fill:#ffffff;fill-opacity:1;stroke:none" /></clipPath><clipPath
     id="clipPath10152"><rect
       width="718.58722"
       height="140.17392"
       x="-37.134048"
       y="754.14667"
       id="rect10154"
       style="fill:#555753;fill-opacity:1;stroke:#555753;stroke-width:1.83322382;stroke-miterlimit:4;stroke-opacity:1;stroke-dasharray:none;stroke-dashoffset:0" /></clipPath><marker
     refX="0"
     refY="0"
     orient="auto"
     id="Arrow2Mend-0"
     style="overflow:visible"><path
       d="M 8.7185878,4.0337352 -2.2072895,0.01601326 8.7185884,-4.0017078 c -1.7454984,2.3720609 -1.7354408,5.6174519 -6e-7,8.035443 z"
       transform="scale(-0.6,-0.6)"
       id="path45132-982"
       style="font-size:12px;fill-rule:evenodd;stroke-width:0.625;stroke-linejoin:round"
       inkscape:connector-curvature="0" /></marker><marker
     refX="0"
     refY="0"
     orient="auto"
     id="DotM-2"
     style="overflow:visible"><path
       d="m -2.5,-1 c 0,2.76 -2.24,5 -5,5 -2.76,0 -5,-2.24 -5,-5 0,-2.76 2.24,-5 5,-5 2.76,0 5,2.24 5,5 z"
       transform="matrix(0.4,0,0,0.4,2.96,0.4)"
       id="path14329-95"
       style="fill-rule:evenodd;stroke:#000000;stroke-width:1pt;marker-start:none;marker-end:none"
       inkscape:connector-curvature="0" /></marker><marker
     refX="0"
     refY="0"
     orient="auto"
     id="Arrow2Mend-2"
     style="overflow:visible"><path
       d="M 8.7185878,4.0337352 -2.2072895,0.01601326 8.7185884,-4.0017078 c -1.7454984,2.3720609 -1.7354408,5.6174519 -6e-7,8.035443 z"
       transform="scale(-0.6,-0.6)"
       id="path45132-98"
       style="font-size:12px;fill-rule:evenodd;stroke-width:0.625;stroke-linejoin:round"
       inkscape:connector-curvature="0" /></marker><marker
     refX="0"
     refY="0"
     orient="auto"
     id="DotM-5"
     style="overflow:visible"><path
       d="m -2.5,-1 c 0,2.76 -2.24,5 -5,5 -2.76,0 -5,-2.24 -5,-5 0,-2.76 2.24,-5 5,-5 2.76,0 5,2.24 5,5 z"
       transform="matrix(0.4,0,0,0.4,2.96,0.4)"
       id="path14329-1"
       style="fill-rule:evenodd;stroke:#000000;stroke-width:1pt;marker-start:none;marker-end:none"
       inkscape:connector-curvature="0" /></marker><marker
     refX="0"
     refY="0"
     orient="auto"
     id="Arrow2Mend-75"
     style="overflow:visible"><path
       d="M 8.7185878,4.0337352 -2.2072895,0.01601326 8.7185884,-4.0017078 c -1.7454984,2.3720609 -1.7354408,5.6174519 -6e-7,8.035443 z"
       transform="scale(-0.6,-0.6)"
       id="path45132-9"
       style="font-size:12px;fill-rule:evenodd;stroke-width:0.625;stroke-linejoin:round"
       inkscape:connector-curvature="0" /></marker><marker
     refX="0"
     refY="0"
     orient="auto"
     id="DotM-466"
     style="overflow:visible"><path
       d="m -2.5,-1 c 0,2.76 -2.24,5 -5,5 -2.76,0 -5,-2.24 -5,-5 0,-2.76 2.24,-5 5,-5 2.76,0 5,2.24 5,5 z"
       transform="matrix(0.4,0,0,0.4,2.96,0.4)"
       id="path14329-32"
       style="fill-rule:evenodd;stroke:#000000;stroke-width:1pt;marker-start:none;marker-end:none"
       inkscape:connector-curvature="0" /></marker><marker
     refX="0"
     refY="0"
     orient="auto"
     id="marker32938"
     style="overflow:visible"><path
       d="M 8.7185878,4.0337352 -2.2072895,0.01601326 8.7185884,-4.0017078 c -1.7454984,2.3720609 -1.7354408,5.6174519 -6e-7,8.035443 z"
       transform="scale(-0.6,-0.6)"
       id="path32940"
       style="font-size:12px;fill-rule:evenodd;stroke-width:0.625;stroke-linejoin:round"
       inkscape:connector-curvature="0" /></marker><marker
     refX="0"
     refY="0"
     orient="auto"
     id="marker32934"
     style="overflow:visible"><path
       d="m -2.5,-1 c 0,2.76 -2.24,5 -5,5 -2.76,0 -5,-2.24 -5,-5 0,-2.76 2.24,-5 5,-5 2.76,0 5,2.24 5,5 z"
       transform="matrix(0.4,0,0,0.4,2.96,0.4)"
       id="path32936"
       style="fill-rule:evenodd;stroke:#000000;stroke-width:1pt;marker-start:none;marker-end:none"
       inkscape:connector-curvature="0" /></marker><marker
     refX="0"
     refY="0"
     orient="auto"
     id="Arrow2Mend-7"
     style="overflow:visible"><path
       d="M 8.7185878,4.0337352 -2.2072895,0.01601326 8.7185884,-4.0017078 c -1.7454984,2.3720609 -1.7354408,5.6174519 -6e-7,8.035443 z"
       transform="scale(-0.6,-0.6)"
       id="path45132-2"
       style="font-size:12px;fill-rule:evenodd;stroke-width:0.625;stroke-linejoin:round"
       inkscape:connector-curvature="0" /></marker><marker
     refX="0"
     refY="0"
     orient="auto"
     id="DotM-46"
     style="overflow:visible"><path
       d="m -2.5,-1 c 0,2.76 -2.24,5 -5,5 -2.76,0 -5,-2.24 -5,-5 0,-2.76 2.24,-5 5,-5 2.76,0 5,2.24 5,5 z"
       transform="matrix(0.4,0,0,0.4,2.96,0.4)"
       id="path14329-9"
       style="fill-rule:evenodd;stroke:#000000;stroke-width:1pt;marker-start:none;marker-end:none"
       inkscape:connector-curvature="0" /></marker><marker
     refX="0"
     refY="0"
     orient="auto"
     id="Arrow2Mend-3"
     style="overflow:visible"><path
       d="M 8.7185878,4.0337352 -2.2072895,0.01601326 8.7185884,-4.0017078 c -1.7454984,2.3720609 -1.7354408,5.6174519 -6e-7,8.035443 z"
       transform="scale(-0.6,-0.6)"
       id="path45132-3"
       style="font-size:12px;fill-rule:evenodd;stroke-width:0.625;stroke-linejoin:round"
       inkscape:connector-curvature="0" /></marker><marker
     refX="0"
     refY="0"
     orient="auto"
     id="DotM-42"
     style="overflow:visible"><path
       d="m -2.5,-1 c 0,2.76 -2.24,5 -5,5 -2.76,0 -5,-2.24 -5,-5 0,-2.76 2.24,-5 5,-5 2.76,0 5,2.24 5,5 z"
       transform="matrix(0.4,0,0,0.4,2.96,0.4)"
       id="path14329-3"
       style="fill-rule:evenodd;stroke:#000000;stroke-width:1pt;marker-start:none;marker-end:none"
       inkscape:connector-curvature="0" /></marker><marker
     refX="0"
     refY="0"
     orient="auto"
     id="Arrow2Mend-9"
     style="overflow:visible"><path
       d="M 8.7185878,4.0337352 -2.2072895,0.01601326 8.7185884,-4.0017078 c -1.7454984,2.3720609 -1.7354408,5.6174519 -6e-7,8.035443 z"
       transform="scale(-0.6,-0.6)"
       id="path45132-4"
       style="font-size:12px;fill-rule:evenodd;stroke-width:0.625;stroke-linejoin:round"
       inkscape:connector-curvature="0" /></marker><marker
     refX="0"
     refY="0"
     orient="auto"
     id="DotM-4"
     style="overflow:visible"><path
       d="m -2.5,-1 c 0,2.76 -2.24,5 -5,5 -2.76,0 -5,-2.24 -5,-5 0,-2.76 2.24,-5 5,-5 2.76,0 5,2.24 5,5 z"
       transform="matrix(0.4,0,0,0.4,2.96,0.4)"
       id="path14329-8"
       style="fill-rule:evenodd;stroke:#000000;stroke-width:1pt;marker-start:none;marker-end:none"
       inkscape:connector-curvature="0" /></marker><clipPath
     id="clipPath6483-5"><rect
       width="548"
       height="280"
       x="67.578148"
       y="187.65627"
       id="rect6485-2"
       style="fill:#ffffff;fill-opacity:1;stroke:none" /></clipPath><clipPath
     id="clipPath6483-1-7-3-0"><rect
       width="548"
       height="280"
       x="67.578148"
       y="187.65627"
       id="rect6485-6-4-5-6"
       style="fill:#ffffff;fill-opacity:1;stroke:none" /></clipPath><marker
     refX="0"
     refY="0"
     orient="auto"
     id="Arrow2Lend-0"
     style="overflow:visible"><path
       d="M 8.7185878,4.0337352 -2.2072895,0.01601326 8.7185884,-4.0017078 c -1.7454984,2.3720609 -1.7354408,5.6174519 -6e-7,8.035443 z"
       transform="matrix(-1.1,0,0,-1.1,-1.1,0)"
       id="path45126-6"
       style="font-size:12px;fill-rule:evenodd;stroke-width:0.625;stroke-linejoin:round"
       inkscape:connector-curvature="0" /></marker><clipPath
     id="clipPath6483-1-7-3-9"><rect
       width="548"
       height="280"
       x="67.578148"
       y="187.65627"
       id="rect6485-6-4-5-8"
       style="fill:#ffffff;fill-opacity:1;stroke:none" /></clipPath><clipPath
     id="clipPath6483-1-7-3"><rect
       width="548"
       height="280"
       x="67.578148"
       y="187.65627"
       id="rect6485-6-4-5"
       style="fill:#ffffff;fill-opacity:1;stroke:none" /></clipPath><clipPath
     id="clipPath6483-1-7"><rect
       width="548"
       height="280"
       x="67.578148"
       y="187.65627"
       id="rect6485-6-4"
       style="fill:#ffffff;fill-opacity:1;stroke:none" /></clipPath><clipPath
     id="clipPath6483-1"><rect
       width="548"
       height="280"
       x="67.578148"
       y="187.65627"
       id="rect6485-6"
       style="fill:#ffffff;fill-opacity:1;stroke:none" /></clipPath><clipPath
     id="clipPath6483"><rect
       width="548"
       height="280"
       x="67.578148"
       y="187.65627"
       id="rect6485"
       style="fill:#ffffff;fill-opacity:1;stroke:none" /></clipPath><clipPath
     id="clipPath22"><path
       d="M 0,792 1224,792 1224,0 0,0 0,792 z"
       id="path24"
       inkscape:connector-curvature="0" /></clipPath><clipPath
     id="clipPath3169"><rect
       width="748.77557"
       height="428.80975"
       x="48.992397"
       y="105.34417"
       id="rect3171"
       style="fill:#f5f5f4;fill-opacity:1;stroke:#888a85;stroke-width:2;stroke-miterlimit:4;stroke-opacity:1;stroke-dasharray:none;stroke-dashoffset:0" /></clipPath><marker
     refX="0"
     refY="0"
     orient="auto"
     id="Arrow2Lend"
     style="overflow:visible"><path
       d="M 8.7185878,4.0337352 -2.2072895,0.01601326 8.7185884,-4.0017078 c -1.7454984,2.3720609 -1.7354408,5.6174519 -6e-7,8.035443 z"
       transform="matrix(-1.1,0,0,-1.1,-1.1,0)"
       id="path45126"
       style="font-size:12px;fill-rule:evenodd;stroke-width:0.625;stroke-linejoin:round"
       inkscape:connector-curvature="0" /></marker><marker
     refX="0"
     refY="0"
     orient="auto"
     id="Arrow2Mend"
     style="overflow:visible"><path
       d="M 8.7185878,4.0337352 -2.2072895,0.01601326 8.7185884,-4.0017078 c -1.7454984,2.3720609 -1.7354408,5.6174519 -6e-7,8.035443 z"
       transform="scale(-0.6,-0.6)"
       id="path45132"
       style="font-size:12px;fill-rule:evenodd;stroke-width:0.625;stroke-linejoin:round"
       inkscape:connector-curvature="0" /></marker><marker
     refX="0"
     refY="0"
     orient="auto"
     id="DotL"
     style="overflow:visible"><path
       d="m -2.5,-1 c 0,2.76 -2.24,5 -5,5 -2.76,0 -5,-2.24 -5,-5 0,-2.76 2.24,-5 5,-5 2.76,0 5,2.24 5,5 z"
       transform="matrix(0.8,0,0,0.8,5.92,0.8)"
       id="path14326"
       style="fill-rule:evenodd;stroke:#000000;stroke-width:1pt;marker-start:none;marker-end:none"
       inkscape:connector-curvature="0" /></marker><marker
     refX="0"
     refY="0"
     orient="auto"
     id="DotM"
     style="overflow:visible"><path
       d="m -2.5,-1 c 0,2.76 -2.24,5 -5,5 -2.76,0 -5,-2.24 -5,-5 0,-2.76 2.24,-5 5,-5 2.76,0 5,2.24 5,5 z"
       transform="matrix(0.4,0,0,0.4,2.96,0.4)"
       id="path14329"
       style="fill-rule:evenodd;stroke:#000000;stroke-width:1pt;marker-start:none;marker-end:none"
       inkscape:connector-curvature="0" /></marker></defs>
<path
   d="M 13.788295,0 C 13.258441,0 12.83188,0.42656 12.83188,0.9564138 l 0,2.4308835 C 11.594732,3.6944151 10.403984,4.1887145 9.285181,4.8617694 L 7.571607,3.1481946 c -0.374663,-0.3746629 -0.980257,-0.3746629 -1.35492,0 L 3.1083436,6.2565374 c -0.3746626,0.3746639 -0.3746626,0.980256 0,1.3549199 L 4.8219178,9.325033 c -0.6677867,1.115535 -1.1308327,2.319785 -1.43462,3.546698 l -2.4308844,0 C 0.4265604,12.871731 0,13.298291 0,13.828141 l 0,4.383563 c 0,0.529854 0.4265604,0.956414 0.9564135,0.956414 l 2.3910337,0 c 0.307067,1.238251 0.8008512,2.426955 1.4744706,3.546699 l -1.7135742,1.713575 c -0.3746626,0.374661 -0.3746626,0.980256 0,1.354921 l 3.1083434,3.108342 c 0.374663,0.374662 0.980257,0.374662 1.35492,0 l 1.713574,-1.713574 c 1.123692,0.677719 2.309334,1.12739 3.546699,1.43462 l 0,2.430884 c 0,0.529854 0.426561,0.956414 0.956415,0.956414 l 4.383563,0 c 0.52985,0 0.95641,-0.42656 0.95641,-0.956413 l 0,-2.430885 c 1.24001,-0.30559 2.425185,-0.761767 3.5467,-1.43462 l 1.713575,1.713574 c 0.374664,0.374662 0.980256,0.374662 1.35492,0 l 3.108343,-3.108342 c 0.374662,-0.374665 0.374662,-0.98026 0,-1.354921 l -1.713575,-1.713575 c 0.674452,-1.117718 1.166647,-2.315963 1.474471,-3.546698 l 2.430885,0 C 31.57344,19.168118 32,18.741558 32,18.211704 l 0,-4.383559 c 0,-0.529854 -0.42656,-0.956414 -0.956413,-0.956414 l -2.430885,0 C 28.307437,11.642048 27.805034,10.438055 27.138231,9.325033 l 1.713575,-1.7135757 c 0.374662,-0.3746639 0.374662,-0.980256 0,-1.3549199 L 25.743463,3.1481946 c -0.374664,-0.3746629 -0.980256,-0.3746629 -1.35492,0 L 22.674968,4.8617694 C 21.555129,4.1896139 20.36061,3.6922413 19.128268,3.3872973 l 0,-2.4308835 C 19.128268,0.42656 18.701708,0 18.171858,0 l -4.383563,0 z m 2.032377,9.962639 c 1.549644,-0.04114 3.129994,0.48291 4.343712,1.633873 2.427433,2.301926 2.541027,6.140437 0.239103,8.567871 -2.296244,2.421441 -6.138424,2.526877 -8.567871,0.239103 -2.427433,-2.301926 -2.541028,-6.140437 -0.239103,-8.567871 1.150964,-1.213716 2.674516,-1.831849 4.224159,-1.872975 z"
   id="rect3381-0"
   style="fill:#808080;fill-opacity:1;stroke:none"
   inkscape:connector-curvature="0" /></svg>