<?xml version="1.0" encoding="UTF-8" standalone="no"?>
<svg xmlns="http://www.w3.org/2000/svg" width="264" height="162" viewBox="0 0 264 162" id="svg2">
    <g id="g4">
        <path d="M250.634 161.357l12.866-9.608V.5H.5v151.75l9 6.704V42.5h39v112.6l4.393-3.73 7.607 5.33V42.5h155v110.85l9.75 8.03 13.917-10.02z" id="path6" fill="#fff"/>
        <path d="M1 1v150.998l8 5.96V42h40v112.02l3.274-2.78.59-.5.632.442L60 155.738V42h156v111.1l9.257 7.66 13.295-9.57.645-.463.598.52 10.864 9.47L263 151.5V1H1M0 0h264v152l-13.39 10-11.475-10-13.89 10L215 153.6V43H61v114.66L52.922 152 48 156.18V43H10v116.95L0 152.5V0z" id="path8" fill="#e5e5e5"/>
    </g>
    <path d="M61 157.66V43h154v110.6l-2.145-1.6-12.555 10-13.81-10-14.228 10-12.972-10-12.973 10-13.81-10-12.137 10-13.39-10-14.23 10-12.972-10-12.974 10L61 157.66z" id="path10" fill="#e5e5e5"/>
    <path d="M253 36c0-7.732-6.268-14-14-14s-14 6.268-14 14 6.268 14 14 14 14-6.268 14-14z" id="path12" fill="#e5e5e5"/>
    <path d="M10 159.95V43h38v113.18L40.45 162l-13.812-10-13.89 10L10 159.95z" id="path14" fill="#e5e5e5"/>
    <path d="M226 132.354V72h25v60.354h-25z" id="path16" fill="#e5e5e5"/>
    <path d="M31.49 5h-26v6h26V5z" id="path18" fill="#e5e5e5"/>
    <path d="M55.49 5h-22v6h22z" id="path20" fill="#e5e5e5"/>
    <path d="M122 6v4h92V6h-92m-1-1h94v6h-94V5z" id="path22" fill="#e5e5e5"/>
    <path d="M79.49 5h-22v6h22z" id="path24" fill="#e5e5e5"/>
    <path d="M102.49 5h-13v6h13z" id="path26" fill="#e5e5e5"/>
    <path d="M87.49 5h-6v6h6z" id="path28" fill="#e5e5e5"/>
    <path d="M110.49 5h-6v6h6z" id="path30" fill="#e5e5e5"/>
    <path d="M255 5h-32v6h32z" id="path32" fill="#e5e5e5"/>
    <path d="M262 14.5H2" id="path34" fill="#e5e5e5" stroke="#e5e5e5"/>
    <path d="M212 7h-2v2h2z" id="path36" fill="#e5e5e5"/>
    <path d="M226 59v-5h25v5h-25z" id="path38" fill="#e5e5e5"/>
    <path d="M100.953 85.46v39.226l-8.717 8.717h61.02V85.46h-52.303zm74.094-21.792h-52.302v17.434h34.868v30.51h26.15l-8.716-8.718V63.668z" id="path4059" fill="#347bff"/>
</svg>
