<?xml version="1.0" encoding="UTF-8"?>
<svg xmlns="http://www.w3.org/2000/svg" width="264" height="162" viewBox="0 0 264 162">
	<defs>
		<clipPath id="a">
			<path d="M0 0v152l12 10 12-10 12 10 12-10 12 10 12-10 12 10 12-10 12 10 12-10 12 10 12-10 12 10 12-10 12 10 12-10 12 10 12-10 12 10 12-10 12 10 12-10V0z"/>
		</clipPath>
	</defs>
	<g transform="matrix(-1 0 0 1 264 0)" clip-path="url(#a)">
		<path fill="#fff" d="M263.5 162.25l-263-.5V.5h263z"/>
		<path fill="#eaecf0" d="M252 162.496V29H48v133.496zM11 22c0-7.732 6.268-14 14-14s14 6.268 14 14-6.268 14-14 14-14-6.268-14-14zM38 163.807V58H13v105.807h25z"/>
		<path fill="#eaecf0" d="M233 5h26v6h-26V5zM209 5h22v6h-22zM185 5h22v6h-22zM162 5h13v6h-13zM177 5h6v6h-6zM154 5h6v6h-6z"/>
		<g fill="#eaecf0">
			<path d="M258 16v4h-92v-4h92m1-1h-94v6h94v-6z"/>
			<path d="M168 17h2v2h-2z"/>
		</g>
		<path fill="#eaecf0" d="M38 45v-5H13v5h25z"/>
		<path fill="#eaecf0" d="M0 0v162h264V0zm1 1h262v150.533l-11 9.166-12-10-12 10-12-10-12 10-12-10-12 10-12-10-12 10-12-10-12 10-12-10-12 10-12-10-12 10-12-10-12 10-12-10-12 10-12-10-12 10-11-9.167z"/>
		<path fill="#36c" d="M191.047 81.46v39.226l8.717 8.717h-61.02V81.46h52.303zm-74.094-21.792h52.302v17.434h-34.868v30.51h-26.15l8.716-8.718V59.668z"/>
	</g>
</svg>
