<?xml version="1.0" encoding="UTF-8" standalone="no"?>
<svg xmlns="http://www.w3.org/2000/svg" width="264" height="162" viewBox="0 0 264 162" id="svg2">
    <g id="g4">
        <path d="M13.366 161.357L.5 151.75V.5h263v151.75l-9 6.704V42.5h-39v112.6l-4.393-3.73-7.607 5.33V42.5h-155v110.85l-9.75 8.03-13.917-10.02z" id="path6" fill="#fff"/>
        <path d="M263 1v150.998l-8 5.96V42h-40v112.02l-3.274-2.78-.59-.5-.632.442-6.504 4.556V42H48v111.1l-9.257 7.66-13.295-9.57-.645-.463-.598.52-10.864 9.47L1 151.5V1h262m1-1H0v152l13.39 10 11.475-10 13.89 10L49 153.6V43h154v114.66l8.078-5.66 4.922 4.18V43h38v116.95l10-7.45V0z" id="path8" fill="#e5e5e5"/>
    </g>
    <path d="M203 157.66V43H49v110.6l2.145-1.6L63.7 162l13.81-10 14.228 10 12.972-10 12.973 10 13.81-10 12.137 10 13.39-10 14.23 10 12.972-10 12.974 10 5.804-4.34z" id="path10" fill="#e5e5e5"/>
    <path d="M11 36c0-7.732 6.268-14 14-14s14 6.268 14 14-6.268 14-14 14-14-6.268-14-14z" id="path12" fill="#e5e5e5"/>
    <path d="M254 159.95V43h-38v113.18l7.55 5.82 13.812-10 13.89 10 2.748-2.05z" id="path14" fill="#e5e5e5"/>
    <path d="M38 132.354V72H13v60.354h25z" id="path16" fill="#e5e5e5"/>
    <path d="M232.51 5h26v6h-26V5z" id="path18" fill="#e5e5e5"/>
    <path d="M208.51 5h22v6h-22z" id="path20" fill="#e5e5e5"/>
    <path d="M142 6v4H50V6h92m1-1H49v6h94V5z" id="path22" fill="#e5e5e5"/>
    <path d="M184.51 5h22v6h-22z" id="path24" fill="#e5e5e5"/>
    <path d="M161.51 5h13v6h-13z" id="path26" fill="#e5e5e5"/>
    <path d="M176.51 5h6v6h-6z" id="path28" fill="#e5e5e5"/>
    <path d="M153.51 5h6v6h-6z" id="path30" fill="#e5e5e5"/>
    <path d="M9 5h32v6H9z" id="path32" fill="#e5e5e5"/>
    <path d="M2 14.5h260" id="path34" fill="#e5e5e5" stroke="#e5e5e5"/>
    <path d="M52 7h2v2h-2z" id="path36" fill="#e5e5e5"/>
    <path d="M38 59v-5H13v5h25z" id="path38" fill="#e5e5e5"/>
    <path d="M163.047 85.46v39.226l8.717 8.717h-61.02V85.46h52.303zM88.953 63.668h52.302v17.434h-34.868v30.51h-26.15l8.716-8.718V63.668z" id="path4059" fill="#347bff"/>
</svg>
