<?xml version="1.0" encoding="UTF-8" standalone="no"?>
<svg xmlns="http://www.w3.org/2000/svg" width="264" height="162" viewBox="0 0 264 162" id="svg2">
    <defs id="defs78">
        <clipPath id="jagged-edge">
            <path id="path5884" d="M0 0v152l12 10 12-10 12 10 12-10 12 10 12-10 12 10 12-10 12 10 12-10 12 10 12-10 12 10 12-10 12 10 12-10 12 10 12-10 12 10 12-10 12 10 12-10V0z"/>
        </clipPath>
    </defs>
    <g transform="matrix(-1 0 0 1 264 0)" id="screenshot" clip-path="url(#jagged-edge)">
        <path d="M263.5 162.25l-263-.5V.5h263z" id="background" fill="#fff"/>
        <path d="M252 162.496V29H48v133.496z" id="article" fill="#e5e5e5"/>
        <path d="M11 22c0-7.732 6.268-14 14-14s14 6.268 14 14-6.268 14-14 14-14-6.268-14-14z" id="logo" fill="#e5e5e5"/>
        <path d="M38 163.807V58H13v105.807h25z" id="sidebar" fill="#e5e5e5"/>
        <g id="personal-tools" fill="#e5e5e5">
            <path id="path5892" d="M233 5h26v6h-26V5z"/>
            <path id="path5894" d="M209 5h22v6h-22z"/>
            <path id="path5896" d="M185 5h22v6h-22z"/>
            <path id="path5898" d="M162 5h13v6h-13z"/>
            <path id="path5900" d="M177 5h6v6h-6z"/>
            <path id="path5902" d="M154 5h6v6h-6z"/>
        </g>
        <g id="search" fill="#e5e5e5">
            <path d="M258 16v4h-92v-4h92m1-1h-94v6h94v-6z" id="path5717"/>
            <path d="M168 17h2v2h-2z" id="icon"/>
        </g>
        <path d="M38 45v-5H13v5h25z" id="sitename" fill="#e5e5e5"/>
        <path id="border" d="M0 0v162h264V0zm1 1h262v150.533l-11 9.166-12-10-12 10-12-10-12 10-12-10-12 10-12-10-12 10-12-10-12 10-12-10-12 10-12-10-12 10-12-10-12 10-12-10-12 10-12-10-12 10-11-9.167z" fill="#e5e5e5"/>
        <path id="path4059" d="M191.047 81.46v39.226l8.717 8.717h-61.02V81.46h52.303zm-74.094-21.792h52.302v17.434h-34.868v30.51h-26.15l8.716-8.718V59.668z" fill="#36c"/>
    </g>
</svg>
