<?xml version="1.0" standalone="no"?>
<!DOCTYPE svg PUBLIC "-//W3C//DTD SVG 1.1//EN" "http://www.w3.org/Graphics/SVG/1.1/DTD/svg11.dtd" >
<svg xmlns="http://www.w3.org/2000/svg">
<metadata>
Created by FontPrep 20130207 at Tue Apr 15 17:19:02 2014
 By May Tee-Galloway
CC-BY-SA-3.0
</metadata>
<defs>
<font id="901c05abc9f646d8deb15155a5d4891b" horiz-adv-x='1024' >
  <font-face 
    font-family="WikiFont-Regular"
    font-weight="400"
    font-stretch="normal"
    units-per-em="2048"
    panose-1="0 0 5 0 0 0 0 0 0 0"
    ascent="1638"
    descent="-410"
    bbox="17.3596 -508 2038 1540"
    underline-thickness="50"
    underline-position="-25"
    unicode-range="U+0020-E900"
  />
<missing-glyph horiz-adv-x="600" 
 />
    <glyph glyph-name=".notdef" horiz-adv-x="600" 
 />
    <glyph glyph-name=".null" horiz-adv-x="0" 
 />
    <glyph glyph-name="nonmarkingreturn" horiz-adv-x="682" 
 />
    <glyph glyph-name="space" unicode=" " horiz-adv-x="600" 
 />
    <glyph glyph-name="uniE000" unicode="&#xe000;" 
d="M920 883q-88 0 -163 -54q-76 -54 -110 -132q-34 -79 -23 -171t75 -162q95 -94 223 -99t225 89q55 56 77 128t7 141t-53 128t-104 95t-154 37zM929 1113q223 -1 371 -149t168 -336t-84 -347l-1 -1l361 -361l-61 -62q-42 -42 -102 -42t-102 42l-258 259q-159 -103 -351 -81
t-325 155q-103 104 -140 243t0 279t141 243q161 158 383 158z" />
    <glyph glyph-name="uniE001" unicode="&#xe001;" 
d="M744 694h797q61 0 103 -42t42 -102v-85h-942v-307l-476 403l476 440v-307z" />
    <glyph glyph-name="uniE002" unicode="&#xe002;" 
d="M1572 1094q60 0 101 -42l59 -59l-956 -956l-495 495l160 161l335 -333l693 692q43 42 103 42z" />
    <glyph glyph-name="uniE003" unicode="&#xe003;" 
d="M1493 949q0 -60 -42 -102l-290 -290l392 -392l-162 -162l-392 392l-392 -392l-60 60q-42 41 -42 101t42 102l291 291l-378 378l161 161l378 -378l392 392l60 -59q42 -42 42 -102z" />
    <glyph glyph-name="uniE004" unicode="&#xe004;" 
d="M1426 862l-123 122l-297 -297l-287 286l-122 -122l287 -286l-298 -298l122 -122l298 297l297 -297l123 122l-298 298zM1006 1256q141 0 269 -55q129 -55 221 -147t147 -221t55 -269t-55 -268t-147 -220t-221 -148q-128 -55 -269 -55t-269 55q-129 56 -221 148t-147 220
t-55 268t55 269t147 221t221 147q128 55 269 55z" />
    <glyph glyph-name="uniE005" unicode="&#xe005;" 
d="M1107 648l-117 239l-118 -239l-265 -39l191 -186l-45 -264l237 124l236 -124l-45 264l191 186zM758 805l232 471l232 -471l520 -75l-376 -367l89 -518l-465 244l-465 -243l89 517l-376 367z" />
    <glyph glyph-name="uniE006" unicode="&#xe006;" 
d="M758 805l232 471l232 -471l520 -75l-376 -367l89 -518l-465 244l-465 -243l89 517l-376 367z" />
    <glyph glyph-name="uniE007" unicode="&#xe007;" 
d="M1510 1052q0 -42 -29 -70l-119 -120l-71 71l189 190q30 -29 30 -71zM1467 611h268v-1q0 -40 -29 -70t-70 -30h-169v101zM940 1305h1q41 0 70 -29t29 -70v-168h-100v267zM1480 41q-42 0 -70 29l-119 119l71 71l189 -189v-1q-29 -29 -71 -29zM496 1083q42 0 71 -29
l119 -119l-71 -71l-189 190h1q27 29 69 29zM344 611h169v-101h-268v1q0 41 29 71t70 29zM940 83h100v-268h-1q-41 -1 -70 29t-29 71v168zM468 69q0 41 29 70l119 119l71 -70l-190 -190v1q-29 29 -29 70zM990 904q142 0 242 -101t101 -243q-1 -142 -101 -242t-242 -101
t-242 101q-102 102 -102 243t101 242t243 101z" />
    <glyph glyph-name="uniE008" unicode="&#xe008;" 
d="M1092 768l-90 254l-91 -254l-244 116l116 -244l-254 -90l254 -91l-116 -244l244 116l91 -254l90 254l244 -116l-116 244l254 91l-254 90l116 244zM1024 1237q164 0 322 -92q158 -93 250 -251t92 -344t-92 -346q-92 -158 -250 -250t-322 -92t-290 54q-127 54 -219 147
q-93 91 -147 219t-54 268t54 267t147 219q92 92 219 146q126 54 290 55z" />
    <glyph glyph-name="uniE009" unicode="&#xe009;" 
d="M1103 -115h-86q-59 0 -101 42t-42 101v325l-619 648h1469l-621 -650v-466z" />
    <glyph glyph-name="uniE010" unicode="&#xe010;" 
d="M990 655q73 0 125 -52t52 -125q0 -74 -52 -126q-51 -52 -125 -52t-126 52t-52 126t52 125q52 52 126 52zM990 151q134 0 230 96q96 97 96 231t-96 230t-230 96t-230 -96t-96 -230t96 -231q96 -96 230 -96zM978 1000q92 0 186 -30t178 -72q83 -44 173 -104
q139 -92 247 -187t143 -129l-30 -29q-66 -64 -171 -148q-179 -144 -367 -245t-347 -101q-285 1 -575 207q-138 98 -228 192t-113 124l24 29q49 62 143 147q93 84 175 140t168 102q88 46 195 75t199 29z" />
    <glyph glyph-name="uniE011" unicode="&#xe011;" 
d="M1077 -66h-172v253q-104 7 -207 35l-87 -230l-160 61l85 226q-101 46 -182 104l-153 -181l-131 110l153 182q-96 94 -167 213l90 52q46 28 98 19t86 -50q121 -149 294 -231q174 -82 368 -82t366 82t294 231q34 41 86 50t99 -19l83 -54q-71 -118 -162 -209l165 -196
l-131 -110l-164 194q-85 -61 -179 -104l89 -234l-161 -61l-90 237q-105 -28 -210 -35v-253z" />
    <glyph glyph-name="uniE012" unicode="&#xe012;" 
d="M718 836v302h-66q-36 0 -61 -26t-25 -60v-216h152zM603 1243h721q48 0 82 -34t34 -82v-1327l-360 241l-349 -241v930h-271v369q0 59 42 101t101 43z" />
    <glyph glyph-name="uniE013" unicode="&#xe013;" 
d="M1337 911v222h-672q-23 0 -40 -17t-17 -40v-165h729zM1332 -28v548h-739v-548h739zM647 1233h784v-322h189q60 0 102 -42t42 -101v-640h-333v-256h-939v256h-221q-41 0 -70 29t-29 70v684h332v179q0 59 42 101t101 42z" />
    <glyph glyph-name="uniE014" unicode="&#xe014;" 
d="M974 1326q89 0 152 -63t63 -153h318v-318h5q89 0 152 -63t63 -152t-63 -152t-152 -63h-5v-318l-318 -1q0 -89 -63 -152t-152 -63t-152 63t-63 153h-318v294q99 0 169 70t69 169q1 99 -69 169t-169 70v294l318 1q0 89 63 152t152 63z" />
    <glyph glyph-name="uniE015" unicode="&#xe015;" 
d="M1069 1017h-167v-560l381 -219l18 20q52 56 36 116q-8 30 -39 48q-70 44 -229 132v463zM1024 1237q164 0 322 -92q158 -93 250 -251t92 -344t-92 -346q-92 -158 -250 -250t-322 -92t-290 54q-127 54 -219 147q-93 91 -147 219t-54 268t54 267t147 219q92 92 219 146
q126 54 290 55z" />
    <glyph glyph-name="uniE016" unicode="&#xe016;" 
d="M1292 955q-48 1 -80 -33q-34 -34 -34 -82t34 -80q34 -34 80 -34q48 0 82 34t33 80q1 48 -33 82t-82 33zM1292 373q-48 1 -80 -33q-34 -34 -34 -82t34 -80q34 -34 80 -34q48 0 82 34t33 80q1 48 -33 82t-82 33zM710 955q-48 1 -80 -33q-34 -34 -34 -82t34 -80
q34 -34 80 -34q48 0 82 34t33 80q1 48 -33 82t-82 33zM1002 664q-48 0 -82 -34t-33 -80q-1 -48 33 -82t82 -33q48 -1 80 33q34 34 34 82t-34 80q-32 34 -80 34zM724 373q-48 1 -80 -33q-34 -34 -34 -82t34 -80q34 -34 80 -34q48 0 82 34t33 80q1 48 -33 82t-82 33zM363 1188
h1134q59 0 101 -42t42 -101v-1134h-1134q-59 0 -101 42t-42 101v1134z" />
    <glyph glyph-name="uniE017" unicode="&#xe017;" 
d="M1117 978v-292h290v138l299 -276l-299 -253v139h-292v-291h139l-276 -298l-254 298h139v291h-291v-139l-298 253l298 278v-139h291v291h-139l254 298l277 -298h-138z" />
    <glyph glyph-name="uniE018" unicode="&#xe018;" 
d="M990 824q-108 0 -186 -78t-78 -186t77 -186t187 -77q110 0 186 77q77 77 77 186q1 108 -77 186t-186 78zM864 1248h252l26 -154q55 -14 117 -48l128 90l177 -179l-90 -127q31 -57 49 -118l154 -26v-252l-154 -24q-16 -59 -49 -119l90 -127l-177 -178l-128 90
q-56 -32 -117 -48l-26 -155h-252l-26 153q-58 17 -118 49l-128 -90l-177 177l90 128q-32 59 -49 119l-153 25v252l153 25q15 55 49 119l-90 127l179 178l127 -91q61 34 117 49z" />
    <glyph glyph-name="uniE019" unicode="&#xe019;" 
d="M1546 726q68 0 118 -48q48 -48 48 -118q0 -68 -48 -116t-118 -49q-68 1 -116 49t-49 116q1 68 49 118q48 48 116 48zM433 726q69 0 117 -48t48 -118q0 -68 -48 -116t-117 -49q-69 1 -117 49t-49 116q1 68 49 118q48 48 117 48zM990 726q69 0 117 -48t48 -118
q0 -68 -48 -116t-117 -49q-70 1 -118 49t-48 116t48 118q48 48 118 48z" />
    <glyph glyph-name="uniE020" unicode="&#xe020;" 
d="M224 1159h1393q57 -1 97 -41t41 -97v-64l-762 -388l-769 390v200zM1755 -38h-1393q-58 0 -98 40t-40 98v667l771 -387l760 387v-805z" />
    <glyph glyph-name="uniE021" unicode="&#xe021;" 
d="M1156 1192q98 86 230 82t222 -86t110 -200q24 -156 -69 -262q-11 -12 -17 -20t-19 -20t-18 -16t-21 -20q-16 -14 -20 -17l-797 -710q-95 -84 -224 -86t-226 81q-163 159 -103 357q22 72 54 110q34 39 56 59t52 45t43 38l457 406q151 134 285 52q63 -39 87 -103t6 -131
t-70 -114l-448 -398q-97 109 -16 180l373 333q32 28 11 62t-45 34q-24 -1 -38 -14l-508 -452q-91 -81 -105 -104q-41 -67 -42 -108t32 -87q32 -47 88 -65t100 -4t276 216t444 398l213 195q37 40 41 98q4 57 -24 101t-62 62q-36 18 -74 16t-89 -8t-88 36q-1 2 -29 28
q-28 25 -28 36z" />
    <glyph glyph-name="uniE022" unicode="&#xe022;" 
d="M1539 963q52 0 89 -37l51 -51l-656 -656l-654 655l51 52q36 38 88 38t89 -37l427 -426l426 425q37 37 89 37z" />
    <glyph glyph-name="uniE023" unicode="&#xe023;" 
d="M1420 204v347h204v-551h-1075q-53 0 -89 36t-36 89v426h204v-257q0 -38 26 -64t64 -26h702zM1121 776h268l-352 -415l-384 415h268v385q1 53 37 89t88 36h75v-510z" />
    <glyph glyph-name="uniE040" unicode="&#xe040;" 
d="M345 1216h1362v-172h-1362v172zM345 529h1362v-172h-1362v172zM345 873h1362v-172h-1362v172z" />
    <glyph glyph-name="uniE041" unicode="&#xe041;" 
d="M345 694h1140v-242h-1140v242zM345 172h696v-242h-696v242zM345 1216h1362v-242h-1362v242z" />
    <glyph glyph-name="uniE042" unicode="&#xe042;" 
d="M345 1216h1362v-242h-1362v242zM345 802h1138v-172h-1138v172zM345 530h694v-172h-694v172zM345 172h1362v-242h-1362v242z" />
    <glyph glyph-name="article" unicode="&#xe100;" 
d="M1405 769v349h-279v-349h279zM975 1020v100h-332v-100h332zM975 768v100h-332v-100h332zM1407 516v100h-764v-100h764zM1407 265v99h-764v-99h764zM1407 16v100h-764v-100h764zM444 1315h1017q59 0 101 -42t42 -101v-1358h-1016q-60 0 -102 42t-42 102v1357z" />
    <glyph glyph-name="articleCheck" unicode="&#xe101;" 
d="M1367 768v350h-279v-350h279zM937 1019v100h-332v-100h332zM937 768v99h-332v-99h332zM1369 516v100h-764v-100h764zM406 1315h1017q59 0 101 -42t42 -101v-812l-250 -250l-155 154h208v100h-764v-100h330l-82 -82l-77 -66h-171v-100h402l-96 96l129 129l268 -267
l449 447q33 35 81 35t82 -35l47 -47l-401 -401v-159h-159l-99 -99l-99 99h-659q-60 0 -102 42t-42 101v1358z" />
    <glyph glyph-name="articleSearch" unicode="&#xe102;" 
d="M1369 768v350h-279v-350h279zM939 1019v100h-332v-100h332zM939 768v99h-332v-99h332zM1381 516q152 0 252 -101t114 -229t-57 -235l-1 -1l245 -246l-41 -41q-29 -29 -70 -29t-69 29l-176 176q-86 -58 -199 -58q-152 0 -260 108q-107 108 -107 260t108 260
q109 107 261 107zM1380 360q-85 0 -149 -62q-5 -3 -8 -8q-56 -63 -54 -147q1 -85 63 -145t148 -60t148 62t62 150t-62 148q-63 62 -148 62zM607 364v-100h320q-19 -76 -13 -148h-307v-100h324q33 -114 117 -198l5 -4h-501q-60 0 -102 42t-42 101v1358h1017q59 0 101 -42
t42 -101v-596q-89 40 -188 40h-773v-100h484q-82 -64 -126 -152h-358z" />
    <glyph glyph-name="uniE400" unicode="&#xe400;" 
d="M474 1075q0 -22 -9 -31q-85 -10 -99 -39t24 -108l337 -767h8l204 417l-155 329q-47 98 -68 123t-39 32t-49 12q-9 9 -10 31t8 30q40 -2 166 -2t165 2q8 -8 8 -30t-8 -31q-56 -9 -58 -39t38 -109l90 -184l8 -8l99 183q43 79 43 106q0 28 -14 38t-43 13q-6 9 -6 31t8 31
q37 -1 141 -1t138 1q9 -9 9 -31t-9 -30q-70 -10 -106 -54t-75 -117l-134 -256l236 -485h8l348 755q37 75 22 113t-101 44q-8 8 -8 30t8 31q240 -3 342 0q9 -8 9 -30t-9 -31q-75 -8 -111 -54q-37 -46 -69 -117l-433 -935q-12 -22 -20 -32t-23 -10q-29 0 -42 42l-249 532
l-272 -532q-16 -42 -42 -42t-42 42l-401 939q-43 101 -65 126q-21 27 -42 33t-58 8q-9 8 -10 30t8 31q250 -4 395 0q9 -8 9 -30z" />
    <glyph glyph-name="uniE500" unicode="&#xe500;" 
d="M611 1006v99q-1 19 27 33t68 13l188 17l68 76h296l71 -78l193 -15q40 1 68 -13t27 -33v-99q1 -20 -53 -20l-42 1h-816l-42 -1q-52 0 -53 20zM1411 -93h-596q-27 0 -47 19t-20 45l-114 879h959l-115 -879q0 -26 -20 -45t-47 -19z" />
    <glyph glyph-name="uniE501" unicode="&#xe501;" 
d="M1302 -97h-490q-47 -1 -60 45q-7 24 -10 51t-4 31l821 820h34l-116 -882q-8 -49 -51 -59t-81 -8t-43 2zM608 1004v99q0 19 28 33t67 13l188 16l68 78h298l71 -78l164 -12l217 218l105 -103l-1361 -1403l-125 125l367 367l-64 491h557l137 137h-622l-43 -1q-52 0 -52 20z
" />
    <glyph glyph-name="uniE502" unicode="&#xe502;" 
d="M1454 441v242h-889v-242h889zM1034 1249q164 0 321 -92q158 -93 250 -251t92 -344t-92 -346q-92 -158 -250 -250q-157 -92 -321 -92t-291 54t-219 147q-92 91 -146 219t-55 268q1 140 55 267t146 219t219 146t291 55z" />
    <glyph glyph-name="uniE503" unicode="&#xe503;" 
d="M1450 443v244h-86l232 232q103 -172 96 -377q-6 -206 -114 -360t-266 -232t-334 -71q-176 6 -326 96l469 468h329zM559 687v-244h179l243 244h-422zM1413 1119l273 273l122 -122l-1429 -1428l-121 121l192 194q-94 125 -122 281t13 309t150 277t273 184t336 37t313 -126z
" />
    <glyph glyph-name="uniE504" unicode="&#xe504;" 
d="M755 -52q1 -30 -27 -42t-56 -10l-28 3v1334q145 15 365 -57q87 -28 170 -71q270 -129 470 57v-711q-47 -78 -149 -113q-141 -48 -319 56q-181 116 -275 129t-151 -6v-569z" />
    <glyph glyph-name="uniE505" unicode="&#xe505;" 
d="M1080 451l564 564v-566q-46 -77 -149 -112q-140 -48 -318 56q-51 33 -97 58zM754 -52q0 -30 -28 -42t-56 -10l-27 3v115l111 111v-177zM1305 1060l310 308l119 -120l-1383 -1381l-119 119l413 413v833q186 10 438 -96q146 -62 222 -76z" />
    <glyph glyph-name="uniE506" unicode="&#xe506;" 
d="M1329 557l-501 289v-579zM1032 1248q164 0 321 -92q158 -92 250 -250t92 -345t-92 -345t-250 -250q-157 -92 -321 -92t-291 54t-219 147q-92 92 -146 219t-55 267q1 140 55 267t146 219q92 93 219 147t291 54z" />
    <glyph glyph-name="uniE507" unicode="&#xe507;" 
d="M1265 303v516h-515v-516h515zM1032 1248q164 0 321 -92q158 -92 250 -250t92 -345t-92 -345t-250 -250q-157 -92 -321 -92t-291 54t-219 147q-92 92 -146 219t-55 267q1 140 55 267t146 219q92 93 219 147t291 54z" />
    <glyph glyph-name="uniE508" unicode="&#xe508;" 
d="M1180 832q0 200 -172 200t-172 -200v-175h344v175zM1009 1260q164 0 273 -124t109 -302v-177h174v-771h-970q-59 0 -101 42t-42 102v627h174v177q0 178 110 302t273 124z" />
    <glyph glyph-name="uniE600" unicode="&#xe600;" 
d="M1570 501v-622h-975q-53 1 -89 37t-36 88v497h280q36 -73 114 -120t152 -47q75 0 154 45t120 122h280zM1020 421q-106 0 -180 104t-74 263t114 242q60 44 140 44t140 -44q114 -83 114 -242t-74 -263t-180 -104z" />
    <glyph glyph-name="uniE601" unicode="&#xe601;" 
d="M700 425q-22 0 -38 -16q-15 -17 -15 -39t16 -37q86 -85 219 -117t267 -4t224 107q21 17 27 41t-12 42q-16 18 -38 20q-22 1 -39 -14q-67 -66 -177 -90t-219 1t-177 91q-16 15 -38 15zM830 776q-36 0 -61 -25t-25 -61t25 -60q25 -25 61 -25t60 25q26 24 26 60t-26 61
q-24 25 -60 25zM1210 776q-36 0 -61 -25t-25 -61t25 -60q25 -25 61 -25t60 25q26 24 26 60t-26 61q-24 25 -60 25zM552 1153h1106v-1114q0 -56 -28 -91q-54 -69 -141 -69h-1106v1114q0 56 28 91q54 69 141 69z" />
    <glyph glyph-name="uniE602" unicode="&#xe602;" 
d="M1276 618q74 0 127 42t53 104q-65 -64 -180 -64t-181 64q0 -62 53 -104q54 -42 128 -42zM748 618q74 0 127 42t53 104q-65 -64 -180 -64t-181 64q0 -62 53 -104q54 -42 128 -42zM768 373q-18 11 -40 7t-33 -22t-7 -40t23 -34q127 -80 291 -82t293 74q18 10 24 32t-3 41
q-10 19 -32 25t-41 -6q-101 -61 -239 -60t-236 65zM533 1152h1106v-1115q0 -56 -28 -91q-54 -69 -141 -69h-1106v1114q0 22 12 54q38 107 157 107z" />
    <glyph glyph-name="uniE700" unicode="&#xe700;" 
d="M1573 360l-180 474l-181 -473zM491 1308h181v-235h421v-178h-421q56 -226 214 -387q24 -24 71 -72l-66 -174q-206 206 -279 396q-103 -330 -482 -534l-23 67q-35 106 79 177q135 84 200 195t105 269l8 60h-429v179h421v237zM1412 1013q46 0 83 -26t52 -69l387 -1089h-180
l-121 355h-481l-120 -355h-181l422 1184h139z" />
    <glyph glyph-name="uniE800" unicode="&#xe800;" 
d="M1433 1109l-996 -901q28 -19 77 -70l1001 906q-28 47 -82 65zM330 249l1108 995q124 -21 220 -124t103 -229l-1110 -998l-410 -44z" />
    <glyph glyph-name="uniE801" unicode="&#xe801;" 
d="M804 1152q286 253 580 176q76 -20 147 -64q70 -44 103 -106q-351 -9 -561 -268l112 -169l-571 22l41 576zM1691 1082q65 -135 70 -192l-1110 -998l-410 -44l89 401q149 133 435 391l147 -4l-475 -429q31 -22 51 -42q19 -20 27 -27l543 491l317 -12l-173 259
q189 191 489 206z" />
    <glyph glyph-name="uniE802" unicode="&#xe802;" 
d="M1616 1047q0 101 -87 101t-87 -101v-89h174v89zM1723 1048v-90h88v-391h-564v391h88v90q-1 90 55 153t139 63t139 -63t55 -153zM1150 470h139l-643 -578l-410 -45l89 401l825 740v-132l-718 -649q26 -18 78 -70l640 580v-247z" />
    <glyph glyph-name="uniE810" unicode="&#xe810;" 
d="M293 1141h1581v-1117l-5 -28q-13 -69 -57 -101q-44 -31 -100 -31h-1673l254 283v994z" />
    <glyph glyph-name="uniE811" unicode="&#xe811;" 
d="M721 781h1066v-730l187 -208h-1135q-82 1 -109 75q-9 25 -9 43v820zM273 1180h1068v-305h-714v-633h-541l187 209v729z" />
    <glyph glyph-name="uniE812" unicode="&#xe812;" 
d="M1171 590v268h-172v-268h-269v-164h269v-279h172v279h270v164h-270zM293 1141h1581v-1117l-5 -28q-13 -69 -57 -101q-44 -31 -100 -31h-1673l254 283v994z" />
    <glyph glyph-name="uniE813" unicode="&#xe813;" 
d="M1289 897q-38 0 -65 -27t-27 -65t27 -65t65 -27t65 27t27 65t-27 65t-65 27zM909 897q-38 0 -65 -27t-27 -65t27 -65t65 -27t65 27t27 65t-27 65t-65 27zM1109 487q-112 1 -236 27t-192 52l-68 26q1 -99 39 -189t103 -155q65 -66 155 -104t189 -38t189 38t155 104
q65 65 103 155t39 189q-236 -105 -476 -105zM294 1141h1580v-1118q0 -56 -26 -92q-51 -69 -135 -69h-1674l255 286v993z" />
    <glyph glyph-name="uniE820" unicode="&#xe820;" 
d="M585 750q161 134 339 102q122 -22 205 -112q27 -30 25 -72t-33 -69q-63 -56 -72 -62q-17 70 -75 111q-58 40 -129 38t-124 -51l-238 -221q-65 -66 -65 -151t48 -133q85 -85 170 -62q85 24 161 94q33 31 83 17q52 -15 82 -20t85 1q-16 -14 -64 -61t-70 -67
q-87 -78 -147 -104q-167 -75 -321 5q-128 67 -175 209t12 277q30 69 87 122q23 21 93 93t123 116zM1180 1212q47 12 110 8t130 -39t110 -88q91 -112 85 -263q-5 -151 -120 -257q-23 -21 -93 -93q-137 -141 -238 -190q-102 -50 -224 -27t-204 112q-26 30 -24 71t32 69
q62 57 71 62q17 -70 75 -111t130 -38t124 52l237 220q67 66 67 151t-60 144q-100 103 -246 14q-38 -23 -66 -49t-49 -28t-57 8t-64 16t-89 -2q17 15 65 61t70 66q22 21 68 55t79 50q34 14 81 26z" />
    <glyph glyph-name="uniE830" unicode="&#xe830;" 
d="M838 960q0 -46 -26 -82t-68 -52q-104 -39 -176 -124t-101 -195h371v-512q0 -61 -44 -105t-105 -44h-511v353q6 312 94 488q38 75 108 157q153 179 458 229v-113zM1672 960q0 -46 -26 -82t-68 -52q-104 -39 -176 -124t-101 -195h371v-512q0 -61 -44 -105t-105 -44h-511
v353q6 312 94 488q38 75 108 157q153 179 458 229v-113z" />
    <glyph glyph-name="uniE831" unicode="&#xe831;" 
d="M1506 1357h172v-268h270v-165h-270v-279h-172v279h-269v165h269v268zM1404 824v-121q-72 -79 -103 -197h371v-512q0 -62 -44 -106t-105 -43h-511v336q2 203 40 360t146 283h206zM838 959q0 -45 -26 -81t-68 -53q-104 -39 -176 -124t-101 -195h371v-512q0 -62 -44 -106
t-105 -43h-511v353q2 127 16 226q14 98 56 208t122 202q78 92 186 150q108 60 280 88v-113z" />
    <glyph glyph-name="uniE840" unicode="&#xe840;" 
d="M1378 197v654h-872v-654h872zM597 288l218 291l200 -200l109 91l164 -182h-691zM97 1144h1727v-1294h-1727v1294z" />
    <glyph glyph-name="uniE841" unicode="&#xe841;" 
d="M1843 1036q0 101 -87 101t-87 -101v-89h174v89zM1756 1253q62 1 112 -39q73 -58 81 -166q3 -42 3 -72l-1 -29h87v-390h-564v390h85q-1 113 17 170t68 97t112 39zM1580 18v1l-301 265l-200 -119l-368 386l-60 -25l-389 -508h1318zM97 -150v1276h1379q-13 -34 -16 -77h-88
v-594h386v-605h-1661z" />
    <glyph glyph-name="uniE842" unicode="&#xe842;" 
d="M1593 1396h172v-268h270v-164h-270v-279h-172v279h-269v164h269v268zM1078 165l-368 385l-59 -24l-389 -508l1317 1l-301 265zM97 -150v1275h1121v-266h269v-270h270v-739h-1660z" />
    <glyph glyph-name="uniE843" unicode="&#xe843;" 
d="M1331 835v487h-650v-487h650zM749 902l163 217l148 -149l82 68l121 -136h-514zM377 1540h1286v-2048h-1286v2048z" />
    <glyph glyph-name="uniE844" unicode="&#xe844;" 
d="M1355 740h-460l-107 108h-271v-567l82 -82h756v541zM1824 1144v-1294h-1727v1294h1727z" />
    <glyph glyph-name="uniE845" unicode="&#xe845;" 
d="M689 1319v-422l61 -61h563v403h-342l-80 80h-202zM377 1540h1286v-2048h-1286v2048z" />
    <glyph glyph-name="uniE900" unicode="&#xe900;" 
d="M1652 759l105 57l76 -143l144 76l57 -108l-144 -76l76 -141l-105 -57l-76 141l-144 -74l-57 106l144 76zM1279 681l64 155q102 -47 207 -77l-51 -160q-127 39 -220 82zM967 819l66 155q104 -43 210 -94l-68 -155zM594 1170q64 52 148 46q82 -8 135 -72t45 -148
q-8 -82 -72 -135q-66 -53 -148 -45t-134 71t-46 147q8 84 72 136zM418 1102v-168q-103 -3 -170 -51l-95 140q117 76 265 79zM50 876l154 -69q-32 -85 -4 -157l-158 -59q-53 150 8 285zM122 455l124 112q54 -60 156 -155l-114 -124q-120 113 -166 167zM681 400q77 -8 139 -52
t94 -114t26 -146q-10 -118 -102 -194t-210 -64q-77 8 -139 52q-63 44 -95 114t-25 146q11 118 103 194t209 64z" />
  </font>
</defs>
</svg>
